<svg width="119" height="60" viewBox="0 0 119 60" fill="none" xmlns="http://www.w3.org/2000/svg">
<mask id="mask0_101_74" style="mask-type:luminance" maskUnits="userSpaceOnUse" x="0" y="6" width="119" height="48">
<path d="M118.682 6.99768H0.0117188V53.4338H118.682V6.99768Z" fill="white"/>
</mask>
<g mask="url(#mask0_101_74)">
<path d="M52.1387 19.8231H56.5748V37.5131H61.0112V15.4007H56.5748C54.135 15.4007 52.1387 17.3907 52.1387 19.8231Z" fill="#707070"/>
<path d="M65.4473 37.5132H69.8837V28.6683C69.8837 26.236 67.8874 24.2459 65.4473 24.2459V37.5132Z" fill="#707070"/>
<path d="M74.3203 24.2459V37.5132H78.7567V28.6683H83.1934V33.0908C83.1934 35.5232 85.1897 37.5132 87.6289 37.5132V28.6683C87.6289 26.236 85.6325 24.2459 83.1934 24.2459H74.3203Z" fill="#707070"/>
<path d="M114.246 24.2457H109.81V19.8231C109.81 17.3907 107.813 15.4007 105.373 15.4007V33.0907H96.501V28.6681H100.937V24.2457H96.501C94.0608 24.2457 92.0645 26.2358 92.0645 28.6681V33.0907C92.0645 35.523 94.0608 37.5131 96.501 37.5131H109.81V28.6681H114.246V33.0907C114.246 35.523 116.242 37.5131 118.682 37.5131V28.6681C118.682 26.2358 116.685 24.2457 114.246 24.2457Z" fill="#707070"/>
<path d="M65.4473 19.8231H69.8837C69.8837 17.3907 67.8874 15.4007 65.4473 15.4007V19.8231Z" fill="#707070"/>
<path d="M59.0552 41.9353V44.8306H58.6486L57.0514 42.8247V44.8306H56.5742V41.9353H56.9808L58.5782 43.9496V41.9353H59.0552Z" fill="#707070"/>
<path d="M68.0791 44.8305H66.3573V41.9352H68.0375V42.411H66.8677V43.1306H67.9132V43.6061H66.8677V44.3548H68.0791V44.8305Z" fill="#707070"/>
<path d="M76.3229 42.411H75.3811V41.9352H77.7749V42.411H76.8331V44.8305H76.3229V42.411Z" fill="#707070"/>
<path d="M88.6319 41.9352H89.1218L88.292 44.8295H87.8152L87.1144 42.7374L86.4257 44.8295H85.9448L85.0781 41.9352H85.6499L86.2347 43.9985L86.8825 41.9352H87.3884L88.0521 44.0026L88.6319 41.9352Z" fill="#707070"/>
<path d="M96.4238 43.428C96.4238 43.0062 96.5648 42.6519 96.8467 42.3654C97.1346 42.0786 97.4975 41.9353 97.9333 41.9353C98.3702 41.9353 98.7311 42.0732 99.016 42.3487C99.3039 42.6271 99.4478 42.9869 99.4478 43.428C99.4478 43.8606 99.3039 44.2176 99.016 44.4987C98.7291 44.7801 98.3682 44.9206 97.9333 44.9206C97.4975 44.9206 97.1356 44.7826 96.8507 44.5071C96.5668 44.2314 96.4238 43.8717 96.4238 43.428ZM96.9636 43.428C96.9636 43.7202 97.0556 43.9628 97.2416 44.1557C97.4265 44.3486 97.6574 44.4449 97.9333 44.4449C98.2322 44.4449 98.4691 44.3486 98.6431 44.1557C98.82 43.9628 98.908 43.7202 98.908 43.428C98.908 43.133 98.814 42.8889 98.6261 42.6961C98.4382 42.5059 98.2072 42.4109 97.9333 42.4109C97.6544 42.4109 97.4225 42.5059 97.2366 42.6961C97.0546 42.8862 96.9636 43.1303 96.9636 43.428Z" fill="#707070"/>
<path d="M107.261 43.7552V44.8386H106.75V41.9435C106.894 41.9435 107.051 41.9422 107.219 41.9393C107.388 41.9366 107.526 41.9352 107.634 41.9352C108.337 41.9352 108.688 42.2331 108.688 42.8286C108.688 43.0493 108.631 43.2312 108.518 43.3746C108.404 43.5124 108.275 43.6061 108.128 43.6559L109.036 44.8386H108.418L107.618 43.7552H107.261ZM107.609 42.411C107.595 42.411 107.573 42.4123 107.543 42.415C107.512 42.415 107.47 42.4164 107.414 42.4191C107.359 42.4191 107.308 42.4191 107.261 42.4191V43.2794H107.593C107.756 43.2794 107.889 43.2395 107.991 43.1594C108.096 43.0795 108.149 42.9705 108.149 42.8327C108.149 42.5515 107.969 42.411 107.609 42.411Z" fill="#707070"/>
<path d="M116.849 44.8305H116.338V41.9352H116.849V43.3084L117.993 41.9352H118.608L117.413 43.2837L118.682 44.8305H118.036L116.849 43.3373V44.8305Z" fill="#707070"/>
<path fill-rule="evenodd" clip-rule="evenodd" d="M36.5992 15.1301C35.2373 14.249 34.2674 13.8674 34.2674 13.8674C34.2674 13.8674 34.9041 13.8928 35.8162 13.9586C36.1664 13.9839 36.5574 14.0151 36.9684 14.0531C37.2962 14.0835 37.6365 14.1182 37.9792 14.1576C37.3761 13.6849 36.7775 13.2594 36.1846 12.8773C32.5924 10.5622 29.218 9.84049 26.4069 9.84049C23.9258 9.84049 21.8848 10.3997 20.5198 10.9215C19.4196 11.3418 18.7586 11.7378 18.6598 11.7969L18.6554 11.7995L20.0747 9.55027L20.1808 8.44973C20.5639 8.48645 20.9004 8.71843 21.07 9.06269C21.142 9.20862 21.1796 9.36588 21.1834 9.52339C22.5624 9.09755 24.3422 8.73488 26.4069 8.73488C29.9224 8.73488 34.2052 9.79276 38.6648 13.2885C39.0549 13.5943 39.1937 14.1211 39.0046 14.5786C38.9059 14.8176 38.7303 15.0073 38.5147 15.1258C39.3179 15.7389 40.1798 16.4895 41.0273 17.393C44.0994 20.6682 46.9419 25.9161 46.1794 33.7459C46.1358 34.1922 45.8262 34.5682 45.3956 34.6976C45.1985 34.7568 44.9939 34.7591 44.803 34.7107C44.5542 38.0576 43.0905 43.5913 36.7893 48.3088C36.4116 48.5917 35.8956 48.6048 35.5037 48.3417C35.345 48.2351 35.2209 48.0927 35.1371 47.9307C35.0738 47.9898 35.0091 48.049 34.9434 48.1084C33.1516 49.7251 30.4248 51.492 26.7414 52.0026C26.6909 52.0096 26.6398 52.0131 26.5888 52.0131H26.5524C26.0944 52.0131 25.6837 51.7326 25.5182 51.3068C25.4909 51.2366 25.4712 51.1651 25.4588 51.0927C24.55 51.2728 23.481 51.3965 22.2582 51.3965C20.2003 51.3965 17.711 51.0474 14.7949 50.0281C14.2376 49.8333 13.9312 49.2372 14.0979 48.6724C14.2649 48.1076 14.8465 47.7723 15.4208 47.9094C16.2464 48.1072 17.0693 48.2055 17.9276 48.2055C23.5091 48.2055 27.8816 44.0523 27.8816 39.0808C27.8816 36.6301 26.839 34.3825 25.0831 32.7233C25.0783 32.7295 25.0734 32.7359 25.0686 32.7421C24.6677 33.2585 24.1848 33.8826 23.8427 34.3312C23.2893 35.1053 23.0952 35.5333 23.1389 35.921C23.3277 37.1823 22.9379 38.4226 22.2189 39.3304C22.2096 39.3422 22.2001 39.3536 22.1905 39.365C21.9059 39.6959 21.3651 40.166 20.8832 40.585C20.8611 40.6041 20.8394 40.6231 20.8175 40.6421C20.3322 41.064 19.8575 41.4777 19.5125 41.8215C19.5034 41.8306 19.4943 41.8393 19.485 41.848C18.6256 42.6475 17.5041 42.7621 16.8359 42.7621C16.6508 42.7621 16.4843 42.7481 16.3717 42.7386L16.3656 42.7383C16.364 42.7381 16.3625 42.7381 16.3609 42.7379C16.2504 42.7286 16.2086 42.7259 16.1809 42.7259H16.0717C16.0534 42.7259 16.0395 42.7263 16.0293 42.7266C16.0086 42.7396 15.9716 42.7648 15.9119 42.8113C15.8305 42.875 15.7277 42.9621 15.5851 43.0874C15.3121 43.3429 14.9853 43.4545 14.7667 43.5091C14.5131 43.5723 14.2467 43.5965 13.9974 43.5965C13.3498 43.5965 12.6073 43.452 11.9971 43.3011C11.3695 43.1457 10.7982 42.9625 10.4622 42.8442C10.4504 42.84 10.4387 42.8357 10.4271 42.8313C10.1075 42.7065 9.86803 42.4957 9.70479 42.322C9.53314 42.1394 9.38429 41.931 9.25704 41.7275C9.00272 41.3203 8.7763 40.8369 8.58886 40.3758C8.22718 39.4859 7.92528 38.4642 7.8724 37.9631C7.83731 37.6305 7.91868 37.3149 7.97916 37.1177C8.04884 36.8907 8.14561 36.6539 8.24647 36.4299C8.4452 35.9889 8.70602 35.4971 8.93075 35.0735L8.94024 35.0555C9.09949 34.7554 9.23914 34.4917 9.3468 34.2714C9.40029 34.162 9.44007 34.0748 9.46756 34.0081C9.48666 33.9618 9.49436 33.9384 9.49616 33.9332C9.55704 33.6464 9.74667 32.2414 9.94041 30.7283C10.1311 29.2387 10.3127 27.7551 10.3485 27.4513C10.3786 27.1966 10.3742 27.0728 10.3484 26.9551C10.3204 26.8277 10.2484 26.6274 10.0295 26.269C10.0274 26.2655 10.0253 26.2621 10.0233 26.2586C10.0225 26.2573 10.0217 26.256 10.021 26.2547C9.53624 25.4331 9.51175 24.6254 9.71588 23.6371C7.23971 21.9226 0.947506 17.29 0.558136 16.9724C0.555537 16.9703 0.552938 16.9682 0.550439 16.966C0.320016 16.7746 0.0856925 16.4911 0.0146162 16.1012C-0.020672 15.9081 -0.00777611 15.726 0.0337101 15.5671C0.0540033 15.4899 0.0800959 15.4216 0.107687 15.3627C0.121482 15.3333 0.135777 15.3062 0.149873 15.2813C0.15697 15.2689 0.164067 15.257 0.171165 15.2456C0.174664 15.2399 0.178163 15.2344 0.181661 15.2289C0.183361 15.2262 0.18516 15.2236 0.186859 15.2209L0.189458 15.217L0.190758 15.215C0.191458 15.214 0.192058 15.2131 1.11485 15.8264C1.11485 15.8264 1.04207 15.9352 1.2604 16.1166C1.2781 16.131 1.30998 16.1558 1.35487 16.1901C1.36207 16.1956 1.36957 16.2014 1.37736 16.2073C1.48983 16.293 1.66997 16.4279 1.90379 16.6021C2.21938 16.8369 2.63294 17.143 3.11058 17.495C5.58786 19.3207 9.78786 22.3816 10.9769 23.1546C10.613 24.4607 10.613 25.0774 10.9769 25.694C11.4863 26.5286 11.5228 26.9637 11.4499 27.5805C11.3772 28.1973 10.7221 33.5301 10.5766 34.1831C10.5178 34.4466 10.2338 34.9823 9.92071 35.5726C9.45807 36.4444 8.93194 37.4362 8.97533 37.8473C9.04811 38.5366 9.99429 41.475 10.8313 41.8016C11.4499 42.0192 12.9785 42.4909 13.9974 42.4909C14.3612 42.4909 14.6887 42.4184 14.8344 42.2733C15.453 41.729 15.635 41.6202 16.0717 41.6202H16.1809C16.2642 41.6202 16.3552 41.6278 16.4536 41.6359C16.5704 41.6458 16.6979 41.6564 16.8359 41.6564C17.4182 41.6564 18.1824 41.5478 18.7282 41.0398C19.1056 40.6635 19.6123 40.2227 20.0885 39.8088C20.6223 39.3447 21.1176 38.9138 21.3484 38.6454C21.8942 37.9561 22.1854 37.0129 22.04 36.0696C21.9306 35.199 22.4038 34.4372 22.9497 33.6753C23.641 32.7682 24.9147 31.1357 24.9147 31.1357C25.0036 31.2025 25.091 31.2704 25.1773 31.3395C25.3803 31.5018 25.5767 31.6708 25.7657 31.8461C27.7743 33.7055 28.9907 36.2662 28.9907 39.0808C28.9907 43.98 25.2814 48.0639 20.3185 49.0724C19.5487 49.2288 18.7487 49.3111 17.9276 49.3111C16.9815 49.3111 16.0717 49.2023 15.1619 48.9847C16.1366 49.3254 17.0586 49.5872 17.9276 49.7835C18.7914 49.9787 19.603 50.1096 20.3624 50.1893C21.0352 50.2601 21.6673 50.2906 22.2582 50.2906C23.8287 50.2906 25.1179 50.0738 26.1116 49.8056C27.7197 49.3715 28.5538 48.8033 28.5538 48.8033C28.5538 48.8033 28.3383 49.0797 27.9507 49.5074C27.6326 49.8582 27.1991 50.3108 26.6737 50.7963C26.6456 50.8222 26.6174 50.8481 26.5888 50.8743C26.5875 50.8756 26.5861 50.8768 26.5845 50.8781C26.5739 50.8879 26.5633 50.8976 26.5524 50.9075H26.5888C27.2797 50.8118 27.9348 50.6679 28.5538 50.4873C31.7139 49.5642 33.9408 47.673 35.2596 46.2378C36.2267 45.1851 36.7055 44.3772 36.7055 44.3772C36.7055 44.3772 36.6213 44.9778 36.4872 45.7227C36.4278 46.0521 36.3589 46.4097 36.2832 46.7563C36.2325 46.9881 36.179 47.2149 36.1233 47.4248C36.6149 47.0566 37.0754 46.6835 37.5067 46.3071C42.8373 41.6522 43.6992 36.4723 43.737 33.7552C43.7388 33.6306 43.7387 33.5109 43.7376 33.397C43.7376 33.3965 43.7376 33.3976 43.7376 33.397L43.7374 33.3951C43.7374 33.3949 43.7374 33.3953 43.7374 33.3951C43.7374 33.3945 43.7374 33.3932 43.7374 33.3926C43.7374 33.3907 43.7374 33.3881 43.7372 33.3864C43.7269 32.5819 43.6481 32.0521 43.6252 31.8993L43.6225 31.8797C43.6214 31.8718 43.6204 31.8658 43.6198 31.8613C43.6227 31.8656 43.6268 31.8712 43.632 31.8784C43.6359 31.8836 43.6405 31.8896 43.6456 31.8964C43.7086 31.9784 43.8636 32.168 44.0559 32.4015C44.1666 32.5359 44.2895 32.6848 44.4144 32.8361L44.4162 32.8381C44.5621 33.0145 44.7104 33.1942 44.8452 33.3577C44.9285 33.4592 45.0067 33.5545 45.0756 33.6389C45.1226 33.155 45.1553 32.6817 45.1747 32.2189C45.1747 32.2178 45.1749 32.2164 45.1749 32.2152C45.1749 32.2147 45.1749 32.2139 45.1749 32.2133C45.1749 32.2129 45.1751 32.2108 45.1751 32.2104C45.1751 32.21 45.1751 32.2108 45.1751 32.2104C45.1776 32.1491 45.1799 32.0865 45.1818 32.0258C45.5081 22.3384 39.9014 17.2663 36.5992 15.1301ZM11.7643 13.1265C11.7903 13.214 11.8175 13.3039 11.8456 13.3955C12.0067 13.9205 12.1987 14.4999 12.3962 14.992C12.5813 14.4382 12.798 13.9404 13.0386 13.4928C14.5981 10.5927 17.1671 9.80368 18.7318 9.60218C19.5359 9.49863 20.0747 9.55027 20.0747 9.55027C20.1808 8.44973 20.1816 8.4498 20.1808 8.44973L20.1783 8.44949L20.1752 8.44919L20.1672 8.44849C20.1641 8.44822 20.1606 8.44792 20.1566 8.44759C20.1531 8.4473 20.1494 8.447 20.1454 8.44668C20.1279 8.44532 20.1051 8.44368 20.077 8.442C20.0211 8.43864 19.9444 8.43509 19.8491 8.43319C19.659 8.42938 19.3937 8.43208 19.0727 8.45631C18.4332 8.50456 17.5561 8.63937 16.6031 8.98878C15.2467 9.48618 13.7658 10.4111 12.6139 12.0675C12.5964 12.0039 12.5804 11.9455 12.5662 11.8931C12.5409 11.7993 12.521 11.7248 12.5079 11.6741C12.5013 11.6488 12.4962 11.6295 12.4929 11.6168L12.4893 11.6027L12.4883 11.5989C12.393 11.2265 12.1104 10.93 11.7422 10.8161C11.3737 10.7021 10.9726 10.7872 10.6826 11.0406L11.4136 11.8721C10.6826 11.0406 10.683 11.0402 10.6826 11.0406L10.6807 11.0422L10.6786 11.0441L10.6735 11.0486C10.6698 11.0519 10.6653 11.0559 10.6602 11.0606C10.6499 11.0699 10.6369 11.0818 10.6213 11.0964C10.5903 11.1255 10.5491 11.1651 10.4997 11.215C10.4012 11.3147 10.2689 11.4565 10.1185 11.6385C9.81865 12.0016 9.43997 12.5326 9.11158 13.2191C8.64224 14.2001 8.28206 15.4887 8.38952 17.0244C7.16933 16.5855 5.90545 16.1354 4.81512 15.7502C3.98609 15.4573 3.25584 15.2013 2.72051 15.0161C2.4532 14.9235 2.23228 14.8479 2.07103 14.7937C1.99086 14.7668 1.92198 14.744 1.8681 14.7268C1.8666 14.7263 1.8648 14.7258 1.8626 14.725C1.83351 14.7157 1.74124 14.6859 1.65987 14.6697C1.63978 14.6657 1.61958 14.6622 1.59919 14.6593C1.29869 14.6165 0.997789 14.646 0.72418 14.77C0.591425 14.8302 0.480563 14.9058 0.390692 14.986C0.346207 15.0257 0.307919 15.0655 0.27493 15.104C0.258536 15.1232 0.243441 15.142 0.229646 15.1603C0.222748 15.1694 0.216249 15.1784 0.209951 15.1872C0.206852 15.1916 0.203754 15.196 0.200755 15.2002L0.196356 15.2067L0.194158 15.2099C0.193658 15.2107 0.192058 15.2131 1.11485 15.8264C1.11485 15.8264 1.18763 15.7176 1.44234 15.7539C1.45424 15.7562 1.48583 15.7657 1.53541 15.7816C1.53681 15.782 1.53811 15.7825 1.53941 15.7829C1.66247 15.8223 1.89179 15.9001 2.20339 16.0076C2.57686 16.1363 3.0683 16.3078 3.63621 16.5074C5.02795 16.9965 6.87833 17.6545 8.57336 18.2663C9.01252 18.4247 9.44117 18.5801 9.84874 18.7287C9.70419 18.2811 9.60692 17.8522 9.54874 17.4428C9.25953 15.4103 9.93271 13.8618 10.5495 12.9195C10.9964 12.2366 11.4136 11.8721 11.4136 11.8721C11.4136 11.8721 11.554 12.4213 11.7643 13.1265Z" fill="#707070"/>
<path d="M20.3286 37.7384C20.2165 37.8782 19.8238 38.2332 19.4496 38.5713C19.338 38.6722 19.2281 38.7715 19.1278 38.8632C18.976 39.0019 18.8199 39.1405 18.6655 39.2776C18.3755 39.5351 18.0914 39.7875 17.854 40.0241C17.7085 40.1692 17.4174 40.2418 16.9806 40.2418H15.8889C16.1078 39.951 16.4962 39.5085 16.9182 39.0592C17.151 38.8445 17.386 38.6391 17.5992 38.464C17.9725 38.1562 18.3456 37.9482 18.6721 37.7661C19.269 37.4333 19.71 37.1872 19.71 36.5775C19.7331 35.3412 18.9009 35.1018 18.2837 35.0935C18.4677 35.0509 18.6751 35.0177 18.873 35.0177C18.1815 34.8362 17.3081 35.0177 16.9078 35.4166C16.6167 35.6827 16.5521 36.4003 16.4873 37.1177C16.455 37.4765 16.4226 37.8352 16.3619 38.1376C16.1991 38.9822 15.6858 39.4487 14.9009 40.1622L14.8974 40.1653C14.8069 40.2478 14.7128 40.3333 14.6152 40.423C14.5923 40.4443 14.5697 40.4648 14.5474 40.4848L12.1406 39.9515C12.1406 39.9515 13.7418 39.1171 13.9965 38.1738C14.2246 37.3616 13.6354 34.8614 13.4839 34.218C13.4662 34.1431 13.4545 34.0933 13.4507 34.0745C13.4529 34.0766 13.4578 34.0811 13.465 34.0877C13.5752 34.1882 14.2351 34.7899 14.5424 35.7433C15.1247 34.147 15.8889 32.6233 16.1072 32.478C16.2948 32.3534 18.4972 31.1844 19.1138 30.8574C18.8443 31.5869 18.5861 32.309 18.3998 32.841C17.7449 33.0225 17.0899 33.3851 16.6167 34.1107C16.8715 33.9293 17.6721 33.8205 18.2544 33.7479C18.7637 33.7117 20.3286 34.546 20.7289 36.1061V36.1786C20.8016 36.7591 20.6198 37.3031 20.3286 37.7384Z" fill="#707070"/>
<path d="M19.0938 32.7674C19.8404 32.6995 20.4591 32.8495 20.6205 32.9136C22.0397 30.2291 23.1679 28.7779 23.4591 28.7779C23.4899 28.7741 23.5565 28.7764 23.6526 28.7797C24.4608 28.8074 27.3503 28.9067 28.5537 26.0208C29.8443 22.8762 28.0275 20.1891 27.9032 20.0053L27.8988 19.9987C29.4271 25.0051 26.0427 27.7983 23.7501 27.8347C22.4764 27.8347 20.766 28.6691 20.766 28.6691L19.0938 32.7674Z" fill="#707070"/>
<path d="M27.8984 19.9987L27.904 20.0014C28.0614 20.0775 30.7802 21.3924 31.564 25.4726C33.3723 27.5766 34.5061 30.2041 34.8127 32.9862C34.8127 33.1677 35.0673 33.4216 35.3222 33.6393C35.6498 33.9657 35.9771 34.2923 35.9771 34.6189C35.9771 35.4896 35.9044 36.3602 35.7589 37.1945C35.6944 37.4514 35.4019 37.6231 35.0832 37.81L35.0525 37.8282C35.0401 37.8353 35.0278 37.8427 35.0154 37.85C34.9964 37.8611 34.9772 37.8725 34.9583 37.8839C34.9089 37.9166 34.8538 37.9514 34.7976 37.9868C34.6063 38.1076 34.4043 38.2349 34.3761 38.319C33.635 40.9379 32.0838 43.2769 30.0107 45.0488C33.433 43.129 36.0133 39.9015 37.0791 36.0632C37.4326 34.551 37.4929 32.9669 37.2146 31.3536C35.9044 23.9529 28.3351 20.1802 27.8984 19.9987Z" fill="#707070"/>
<path d="M19.1523 20.3635C19.8243 20.3974 21.2617 20.3288 22.621 19.3457C22.7591 19.6671 22.8961 19.9907 23.0279 20.3069C21.3561 20.754 19.857 20.5236 19.1523 20.3635Z" fill="#707070"/>
<path d="M24.172 19.8957C25.0775 19.4802 25.9925 18.8299 26.8256 17.8353C26.0203 17.6054 25.1872 17.4416 24.3326 17.3502C24.078 17.7493 23.8232 18.112 23.5684 18.4023C23.719 18.7729 23.9363 19.3093 24.172 19.8957Z" fill="#707070"/>
<path d="M31.4292 31.2447C31.793 29.3944 31.8294 27.7984 31.7202 26.4922C33.1397 28.3789 34.0131 30.6643 34.2677 33.0224C34.3041 33.3126 34.5952 33.6029 34.8864 33.8931C35.141 34.1106 35.4322 34.4009 35.4322 34.5823C35.4322 35.4168 35.3593 36.2512 35.2138 37.0856C35.1794 37.1887 34.8833 37.3571 34.6357 37.4979L34.5952 37.5207C34.2313 37.7023 33.9037 37.8835 33.8309 38.1738C33.0303 40.9673 31.32 43.4343 29.0273 45.1756C32.4118 41.6564 34.0494 35.852 31.4292 31.2447Z" fill="#707070"/>
<path fill-rule="evenodd" clip-rule="evenodd" d="M15.307 17.4591C15.307 17.4591 14.652 12.7792 17.9272 10.8201C17.9157 10.8251 17.8934 10.8334 17.8617 10.8453C17.1919 11.0963 12.3194 12.9222 15.307 17.4591ZM22.3671 13.1783C24.878 12.235 28.3716 11.7271 33.7938 12.743C31.3921 11.5458 28.8811 10.9291 26.37 10.8928C25.4238 10.8928 24.5504 10.9653 23.7498 11.1104C20.9114 11.6183 18.5823 13.6499 17.7817 16.3708C17.7817 16.3708 18.364 15.4638 19.7468 14.5206L19.8045 14.4425C20.3155 13.751 21.0852 12.7094 21.8212 11.836C22.0395 12.3076 22.2943 12.888 22.3671 13.1783ZM34.9584 19.2004C40.0896 22.5742 42.4186 26.3108 44.0561 30.7005C43.9835 26.0569 42.4186 22.0664 39.3981 18.8739L39.3253 18.8012C36.6688 16.0079 32.7749 14.7019 28.9174 15.246C27.4619 15.4275 26.0061 15.7177 24.878 16.0805C24.6962 16.1167 24.5141 16.153 24.332 16.2256H24.405C24.6962 16.1893 30.0092 15.9353 34.9584 19.2004ZM39.6893 42.2733C39.1435 42.9989 38.5247 43.7608 37.797 44.4862C42.4915 35.4892 38.0152 27.2541 37.8333 26.9277C38.1607 27.2541 38.4883 27.6169 38.7795 27.9433C42.3822 31.9342 42.8188 37.92 39.6893 42.2733ZM10.9676 14.3738C10.8294 14.8993 9.60262 19.5672 13.7422 19.7083C11.2678 18.2209 10.9766 14.3754 10.9766 14.3391L10.9746 14.347L10.9722 14.3563L10.9676 14.3738ZM18.182 24.0981L16.2897 27.3269C16.2897 27.3269 18.0365 26.5286 18.7279 25.5128C19.2738 24.6422 18.182 24.0981 18.182 24.0981ZM16.9188 39.0592C17.1514 38.8446 17.3864 38.6391 17.5998 38.464C17.9728 38.1562 18.346 37.9482 18.6725 37.7661C19.2694 37.4333 19.7103 37.1872 19.7103 36.5777C19.7333 35.3414 18.9012 35.102 18.2841 35.0935C18.2936 35.0914 18.3032 35.0893 18.3127 35.0871C17.9753 35.1622 17.7088 35.2718 17.7088 35.2718C17.7088 35.2718 18.7643 35.0902 19.1645 35.8522C19.5648 36.6139 19.2374 37.0493 18.5823 37.4846C18.2553 37.7019 17.5495 38.3882 16.9188 39.0592ZM20.3654 27.871C20.1977 28.0144 19.6349 29.4492 19.1142 30.8576C18.4978 31.1844 16.2954 32.3536 16.1078 32.4782C15.8893 32.6233 15.1252 34.147 14.5429 35.7433C14.2355 34.7899 13.5757 34.1882 13.4654 34.0876C13.4582 34.081 13.4533 34.0766 13.4511 34.0745C13.4549 34.0934 13.4667 34.1431 13.4843 34.218C13.6359 34.8614 14.2252 37.3616 13.9971 38.1738C13.7422 39.1171 12.141 39.9515 12.141 39.9515L14.5479 40.4848C14.0736 40.9076 13.7291 41.0398 13.4511 41.0398C12.8325 40.9312 12.1046 40.7496 11.5952 40.5684C11.2313 40.0966 10.6855 38.5368 10.5398 37.8838C10.6184 37.6228 10.8665 37.1551 11.0808 36.7512C11.1642 36.594 11.2429 36.4456 11.304 36.3237L11.3646 36.2078C11.7644 35.4449 11.9989 34.9971 12.0683 34.5824C12.2139 33.9657 12.6869 30.1565 12.8689 28.5602C13.3419 29.177 13.9971 30.1927 13.8514 30.8456C14.9069 29.3583 14.1425 27.9072 13.7786 27.3267C13.4511 26.7463 13.0144 25.5854 13.3784 24.3519C13.7422 23.1185 15.0523 19.7083 15.0523 19.7083C15.0523 19.7083 15.4891 20.4702 16.1078 20.325C16.7263 20.18 21.7119 12.7066 21.7119 12.7066C21.7119 12.7066 23.0585 15.6451 21.6391 17.7856C20.1836 19.926 18.7643 20.325 18.7643 20.325C18.7643 20.325 18.9076 20.351 19.153 20.3634C19.8579 20.5234 21.3568 20.7538 23.0287 20.3066C23.6264 21.7399 24.1204 23.0192 24.1502 23.2273C24.1316 23.2702 24.0749 23.4051 23.9925 23.6006L23.9917 23.6027C23.5854 24.5675 22.5607 27.0007 22.4397 27.1815C22.3671 27.2541 21.8575 27.3993 21.4937 27.4719C20.8749 27.6531 20.5109 27.7621 20.3654 27.871ZM21.3479 14.8833C21.3479 14.8833 21.6755 16.3344 20.8385 17.3139C19.7832 18.511 18.8735 18.4748 18.9099 18.4748L21.3479 14.8833ZM12.9416 35.4894L12.6505 36.9405C12.6505 36.9405 13.2328 36.868 13.2328 37.521C13.2328 38.0288 12.6505 38.7181 12.1775 38.7545C11.7044 38.7906 11.5224 38.2102 11.6316 37.8838C11.7407 37.5936 12.9416 35.4894 12.9416 35.4894ZM18.5095 23.3723C19.7832 23.6263 20.1472 25.1137 19.4556 25.9119C18.7643 26.6737 17.0174 27.7621 15.9986 28.0159C15.7802 28.8504 13.9243 28.4876 14.6156 25.8393C14.6156 25.8393 14.9431 27.1091 15.2707 27.0003C15.5982 26.8913 19.3101 21.0869 19.3101 21.0869C19.3101 21.0869 18.837 22.6106 18.5095 23.3723ZM17.2182 36.8782C17.1985 37.2294 17.1661 37.8029 16.9084 38.174C16.9336 38.1487 17.0121 38.0662 17.1141 37.9587C17.3051 37.7576 17.5794 37.4687 17.7453 37.3033C17.8586 37.2015 17.986 37.121 18.1078 37.0441C18.3771 36.8738 18.6187 36.7212 18.6187 36.3963C18.6187 35.8883 17.9272 35.7795 17.6361 35.8522C17.3449 35.9247 17.2723 36.3963 17.2359 36.6501C17.2281 36.7043 17.2237 36.783 17.2182 36.8782ZM34.1213 38.2827C33.3207 41.1488 31.5012 43.6882 29.1359 45.5022C29.433 45.3604 29.7248 45.209 30.0108 45.0487C32.0839 43.2768 33.6351 40.9378 34.3762 38.3191C34.4043 38.235 34.6064 38.1072 34.7976 37.9867C34.8537 37.9515 34.9089 37.9165 34.9584 37.8836C34.9694 37.877 34.9807 37.8704 34.9919 37.8637L35.0154 37.8497C35.0278 37.8426 35.0402 37.8352 35.0526 37.8279L35.0833 37.8099C35.402 37.623 35.6946 37.4511 35.759 37.1944C35.9046 36.3599 35.9772 35.4892 35.9772 34.6186C35.9772 34.2921 35.6497 33.9657 35.3223 33.6391C35.0675 33.4215 34.8127 33.1675 34.8127 32.9861C34.5062 30.204 33.3724 27.5763 31.5641 25.4726C31.5803 25.5574 31.5958 25.6433 31.6103 25.7305C33.2479 27.7984 34.3033 30.3015 34.5944 32.9499C34.5944 33.0854 34.7571 33.2616 34.9152 33.4329C34.9687 33.4907 35.0216 33.548 35.0675 33.6029C35.395 33.9293 35.7224 34.256 35.7224 34.5824C35.7224 35.453 35.6497 36.3237 35.5042 37.1582C35.4314 37.4484 35.0675 37.6661 34.7036 37.8474C34.6544 37.8801 34.5997 37.9148 34.5439 37.95C34.353 38.0705 34.1496 38.1986 34.1213 38.2827ZM27.8985 19.9985C28.338 20.1813 35.9048 23.9543 37.2146 31.3537C37.493 32.9667 37.4326 34.5508 37.079 36.0629C37.4283 34.8047 37.6149 33.4806 37.6149 32.1154C37.6149 25.3377 33.0498 19.6123 26.8251 17.8354C25.992 18.8299 25.077 19.4802 24.1715 19.8957C24.7893 21.4332 25.533 23.3136 25.533 23.445C25.533 23.6627 24.8416 25.4403 24.769 25.5128C24.696 25.5491 23.8592 25.6217 23.5314 25.6217C23.1677 26.4922 22.8037 27.3267 22.7309 27.4357C22.6217 27.5807 22.2943 27.6895 21.6027 27.871C21.5288 27.893 21.4474 27.9166 21.3638 27.9408C21.0366 28.0359 20.6781 28.1395 20.6202 28.1974C20.4382 28.415 19.4556 30.9909 18.8007 32.8048C18.8999 32.7882 18.9977 32.776 19.0936 32.7673L20.7657 28.669C20.7657 28.669 22.4761 27.8346 23.7498 27.8346C26.0424 27.7982 29.4269 25.0049 27.8985 19.9985ZM12.7234 21.9939C12.978 21.5222 12.7598 21.1957 12.5413 21.0143L12.4687 20.9417C12.0319 20.724 9.30252 19.7083 6.60962 18.7651C8.97503 20.325 11.5953 21.8487 12.0319 22.0664C12.3594 22.2115 12.5777 22.2478 12.7234 21.9939Z" fill="#707070"/>
</g>
</svg>
