<svg width="18" height="16" viewBox="0 0 18 16" fill="none" xmlns="http://www.w3.org/2000/svg">
<path fill-rule="evenodd" clip-rule="evenodd" d="M0 1.35725C0 0.7458 0.495678 0.250122 1.10713 0.250122H16.6069C17.2184 0.250122 17.714 0.7458 17.714 1.35725C17.714 1.9687 17.2184 2.46438 16.6069 2.46438H1.10713C0.495678 2.46438 0 1.9687 0 1.35725ZM0 8.00005C0 7.3886 0.495678 6.89292 1.10713 6.89292H16.6069C17.2184 6.89292 17.714 7.3886 17.714 8.00005C17.714 8.6115 17.2184 9.10718 16.6069 9.10718H1.10713C0.495678 9.10718 0 8.6115 0 8.00005ZM13.2855 14.6428C13.2855 14.0313 12.7899 13.5356 12.1784 13.5356H1.10713C0.495678 13.5356 0 14.0313 0 14.6428C0 15.2542 0.495679 15.7499 1.10713 15.7499H12.1784C12.7899 15.7499 13.2855 15.2542 13.2855 14.6428Z" fill="white"/>
</svg>
