<svg width="13" height="14" viewBox="0 0 13 14" fill="none" xmlns="http://www.w3.org/2000/svg">
<g clip-path="url(#clip0_101_27)">
<path d="M2.98096 0.0709175C3.58896 -2.14092e-05 4.34941 -1.17136e-05 5.29248 3.11945e-07H5.85C6.20898 3.11945e-07 6.5 0.3134 6.5 0.7C6.5 1.0866 6.20898 1.4 5.85 1.4H5.33C4.34059 1.4 3.65074 1.40096 3.12099 1.46277C2.6034 1.52316 2.31627 1.63484 2.10382 1.80106C1.93827 1.9306 1.7927 2.08736 1.67242 2.26566C1.51806 2.49445 1.41437 2.80366 1.35829 3.36107C1.30089 3.93157 1.3 4.67448 1.3 5.74V8.26C1.3 9.32552 1.30089 10.0684 1.35829 10.6389C1.41437 11.1963 1.51806 11.5055 1.67242 11.7343C1.7927 11.9126 1.93827 12.0694 2.10382 12.1989C2.31627 12.3652 2.6034 12.4768 3.12099 12.5372C3.65074 12.599 4.34059 12.6 5.33 12.6H7.67C8.65941 12.6 9.34926 12.599 9.87901 12.5372C10.3966 12.4768 10.6837 12.3652 10.8962 12.1989C11.0617 12.0694 11.2073 11.9126 11.3276 11.7343C11.4819 11.5055 11.5856 11.1963 11.6417 10.6389C11.6991 10.0684 11.7 9.32552 11.7 8.26V7.7C11.7 7.31341 11.991 7 12.35 7C12.709 7 13 7.31341 13 7.7V8.30042C13 9.31602 13 10.135 12.9342 10.7897C12.8661 11.4663 12.7215 12.05 12.3793 12.5572C12.1788 12.8544 11.9362 13.1157 11.6603 13.3316C11.1893 13.7001 10.6472 13.8558 10.019 13.9291C9.41106 14 8.65062 14 7.70757 14H5.29246C4.34941 14 3.58894 14 2.98096 13.9291C2.35276 13.8558 1.81069 13.7001 1.3397 13.3316C1.06379 13.1157 0.821155 12.8544 0.620696 12.5572C0.278496 12.05 0.133913 11.4663 0.065852 10.7897C-1.988e-05 10.135 -1.08769e-05 9.31604 2.89664e-07 8.30041V5.69961C-1.08769e-05 4.68398 -1.988e-05 3.86503 0.065852 3.21027C0.133913 2.53374 0.278496 1.94997 0.620696 1.44275C0.821155 1.14562 1.06379 0.88432 1.3397 0.668442C1.81069 0.299919 2.35276 0.144214 2.98096 0.0709175Z" fill="white"/>
<path d="M12.35 4.9C11.991 4.9 11.7 4.58659 11.7 4.2V2.38996L7.60961 6.79497C7.35577 7.06834 6.94422 7.06834 6.69038 6.79497C6.43654 6.5216 6.43654 6.0784 6.69038 5.80503L10.7808 1.4H9.1C8.74102 1.4 8.45 1.0866 8.45 0.700001C8.45 0.313402 8.74102 0 9.1 0H12.35C12.5273 0 12.6881 0.0764775 12.8054 0.200478L12.8138 0.209616C12.8741 0.275656 12.9197 0.351366 12.9507 0.432052C12.9825 0.514587 13 0.605088 13 0.700001V4.2C13 4.58659 12.709 4.9 12.35 4.9Z" fill="white"/>
</g>
<defs>
<clipPath id="clip0_101_27">
<rect width="13" height="14" fill="white"/>
</clipPath>
</defs>
</svg>
