<svg width="338" height="24" viewBox="0 0 338 24" fill="none" xmlns="http://www.w3.org/2000/svg">
<g clip-path="url(#clip0_101_31)">
<path d="M14.9218 17.3888C15.0691 17.2909 15.2732 17.3537 15.3336 17.5157L17.6244 23.6497C17.698 23.847 17.5124 24.0432 17.3008 23.9917L8.86655 21.9404C8.6397 21.8852 8.58594 21.5994 8.77836 21.4715L14.9218 17.3888Z" fill="white"/>
<path d="M16.4018 16.0348C16.3912 16.0065 16.3858 15.9766 16.3858 15.9465V9.76444C16.3858 9.5896 16.2107 9.4639 16.0359 9.51346L8.80872 11.5638C8.63406 11.6133 8.45886 11.4876 8.45886 11.3128V7.31746C8.45886 7.2358 8.49857 7.15882 8.56625 7.10932L17.9843 0.219546C18.1151 0.12379 18.3039 0.160353 18.3859 0.297343L24.0753 9.80488C24.1156 9.87226 24.1226 9.95332 24.0945 10.0262L19.3045 22.4426C19.2161 22.6716 18.8781 22.6699 18.7923 22.4399L16.4018 16.0348Z" fill="white"/>
<path d="M6.0471 0.755406C6.09254 0.71265 6.15221 0.68652 6.21565 0.681552L14.9082 0.000974195C15.1797 -0.0202847 15.3122 0.31178 15.0954 0.470122L7.68634 5.88084C7.61776 5.93092 7.52855 5.94693 7.44573 5.92402L2.56683 4.57393C2.36615 4.5184 2.30238 4.27574 2.4516 4.13546L6.0471 0.755406Z" fill="white"/>
<path d="M1.20894 5.93244C1.22973 5.7728 1.39419 5.66879 1.55518 5.71347L6.72591 7.14868C6.84257 7.18102 6.92281 7.2835 6.92281 7.40008V13.2108C6.92281 13.3857 7.09818 13.5114 7.2729 13.4618L14.45 11.4206C14.6247 11.3709 14.8 11.4966 14.8 11.6715V15.3624C14.8 15.4481 14.7563 15.5283 14.683 15.5773L6.63299 20.9487C6.52799 21.0188 6.3864 21.0093 6.29246 20.9261L0.0876954 15.4269C0.0230695 15.3696 -0.00880086 15.2859 0.00210741 15.2022L1.20894 5.93244Z" fill="white"/>
<path d="M38.9483 20.8842C37.7104 20.8842 36.5254 20.7101 35.3932 20.3616C34.261 19.9981 33.3628 19.5361 32.6986 18.9756L33.7175 16.6807C34.3516 17.1806 35.1366 17.5971 36.0725 17.9304C37.0085 18.2637 37.967 18.4303 38.9483 18.4303C39.7785 18.4303 40.4503 18.3394 40.9636 18.1576C41.4768 17.9759 41.8542 17.7335 42.0958 17.4305C42.3373 17.1124 42.4581 16.7564 42.4581 16.3626C42.4581 15.8778 42.2845 15.4916 41.9373 15.2037C41.59 14.9008 41.1372 14.666 40.5786 14.4994C40.0352 14.3176 39.4238 14.151 38.7445 13.9995C38.0803 13.848 37.4085 13.6738 36.7292 13.4769C36.065 13.2648 35.4536 12.9998 34.895 12.6816C34.3516 12.3484 33.9062 11.9091 33.559 11.3637C33.2118 10.8185 33.0382 10.1216 33.0382 9.27334C33.0382 8.40994 33.2646 7.6222 33.7175 6.9103C34.1855 6.18316 34.8875 5.60755 35.8234 5.18341C36.7745 4.74412 37.9746 4.52448 39.4238 4.52448C40.3749 4.52448 41.3183 4.64566 42.2543 4.88803C43.1902 5.13039 44.0054 5.47879 44.6998 5.93323L43.7714 8.22814C43.0619 7.804 42.3297 7.4935 41.575 7.29652C40.8201 7.08448 40.0956 6.97846 39.4012 6.97846C38.586 6.97846 37.9217 7.07692 37.4085 7.27384C36.9103 7.47076 36.5405 7.72828 36.2989 8.0464C36.0725 8.36446 35.9593 8.728 35.9593 9.13702C35.9593 9.62176 36.1254 10.0156 36.4575 10.3185C36.8047 10.6064 37.25 10.8336 37.7934 11.0002C38.352 11.1668 38.9709 11.3335 39.6502 11.5001C40.3295 11.6516 41.0013 11.8258 41.6655 12.0227C42.3448 12.2196 42.9562 12.4772 43.4997 12.7952C44.0582 13.1133 44.5036 13.5451 44.8356 14.0904C45.1829 14.6357 45.3565 15.3249 45.3565 16.1581C45.3565 17.0064 45.1225 17.7941 44.6545 18.5211C44.2017 19.2331 43.4997 19.8087 42.5487 20.248C41.5976 20.6722 40.3974 20.8842 38.9483 20.8842Z" fill="white"/>
<path d="M51.2701 20.657V7.25105H46.0167V4.75165H59.4672V7.25105H54.2138V20.657H51.2701Z" fill="white"/>
<path d="M68.8823 20.8842C67.6446 20.8842 66.5049 20.6798 65.4633 20.2707C64.4217 19.8618 63.5158 19.2937 62.7457 18.5666C61.9761 17.8244 61.3794 16.9609 60.9567 15.9763C60.5345 14.9766 60.3228 13.8859 60.3228 12.7044C60.3228 11.5228 60.5345 10.4397 60.9567 9.45514C61.3794 8.45536 61.9761 7.59196 62.7457 6.86482C63.5158 6.12256 64.4217 5.54696 65.4633 5.13797C66.5049 4.72897 67.6368 4.52448 68.8596 4.52448C70.0973 4.52448 71.2298 4.72897 72.2565 5.13797C73.2981 5.54696 74.2034 6.12256 74.9735 6.86482C75.7431 7.59196 76.3398 8.45536 76.7626 9.45514C77.1853 10.4397 77.3964 11.5228 77.3964 12.7044C77.3964 13.8859 77.1853 14.9766 76.7626 15.9763C76.3398 16.9761 75.7431 17.8395 74.9735 18.5666C74.2034 19.2937 73.2981 19.8618 72.2565 20.2707C71.2298 20.6798 70.1051 20.8842 68.8823 20.8842ZM68.8596 18.2939C69.6596 18.2939 70.3993 18.1576 71.0786 17.885C71.7578 17.6123 72.3468 17.226 72.8449 16.7261C73.3429 16.2111 73.728 15.6203 73.9995 14.9538C74.2865 14.2722 74.43 13.5224 74.43 12.7044C74.43 11.8864 74.2865 11.1441 73.9995 10.4776C73.728 9.79594 73.3429 9.20518 72.8449 8.70532C72.3468 8.19028 71.7578 7.79644 71.0786 7.52374C70.3993 7.2511 69.6596 7.11478 68.8596 7.11478C68.0596 7.11478 67.3199 7.2511 66.6407 7.52374C65.9763 7.79644 65.3874 8.19028 64.8744 8.70532C64.3763 9.20518 63.9834 9.79594 63.697 10.4776C63.4249 11.1441 63.2892 11.8864 63.2892 12.7044C63.2892 13.5072 63.4249 14.2494 63.697 14.9311C63.9834 15.6128 64.3763 16.2111 64.8744 16.7261C65.3724 17.226 65.9614 17.6123 66.6407 17.885C67.3199 18.1576 68.0596 18.2939 68.8596 18.2939Z" fill="white"/>
<path d="M80.5161 20.657V4.75165H82.939L92.8797 16.9988H91.6796V4.75165H94.6005V20.657H92.1777L82.237 8.40989H83.4376V20.657H80.5161Z" fill="white"/>
<path d="M99.4817 20.816C98.9687 20.816 98.5304 20.6418 98.168 20.2934C97.8063 19.9299 97.6251 19.4754 97.6251 18.9301C97.6251 18.3545 97.8063 17.9 98.168 17.5668C98.5304 17.2184 98.9687 17.0442 99.4817 17.0442C99.9947 17.0442 100.432 17.2184 100.795 17.5668C101.157 17.9 101.338 18.3545 101.338 18.9301C101.338 19.4754 101.157 19.9299 100.795 20.2934C100.432 20.6418 99.9947 20.816 99.4817 20.816Z" fill="white"/>
<path d="M104.379 20.657V7.84186C104.379 6.56944 104.749 5.55454 105.489 4.79714C106.244 4.0246 107.315 3.63833 108.704 3.63833C109.202 3.63833 109.67 3.69134 110.108 3.79738C110.561 3.90341 110.938 4.07004 111.24 4.29726L110.471 6.43312C110.259 6.2665 110.017 6.1453 109.746 6.06958C109.474 5.97868 109.195 5.93324 108.908 5.93324C108.319 5.93324 107.874 6.09988 107.572 6.43312C107.27 6.75124 107.119 7.23598 107.119 7.88734V9.25066L107.209 10.5231V20.657H104.379ZM102.386 10.8866V8.61442H110.448V10.8866H102.386ZM112.44 20.657V8.52352H115.271V20.657H112.44ZM113.867 6.52402C113.338 6.52402 112.901 6.3574 112.554 6.0241C112.221 5.69087 112.055 5.28945 112.055 4.81987C112.055 4.33513 112.221 3.93371 112.554 3.61561C112.901 3.28235 113.338 3.11572 113.867 3.11572C114.395 3.11572 114.825 3.27478 115.158 3.59288C115.505 3.89584 115.679 4.28212 115.679 4.7517C115.679 5.25158 115.512 5.67572 115.18 6.0241C114.848 6.3574 114.41 6.52402 113.867 6.52402Z" fill="white"/>
</g>
<circle cx="158.353" cy="11.8003" r="8.32973" stroke="white" stroke-width="1.38829"/>
<circle cx="150.024" cy="11.8003" r="9.02388" fill="white"/>
<path d="M180.237 19V6.96909H175.805V4.90887H187.136V6.96909H182.705V19H180.237ZM190.844 4.90887V10.0011C191.447 8.91269 192.535 8.31017 194.012 8.31017C196.539 8.31017 197.569 9.9428 197.569 12.4306V19H195.256V12.9943C195.256 11.5754 195.062 10.1955 193.274 10.1955C191.486 10.1955 190.844 11.556 190.844 13.4413V19H188.531V4.90887H190.844ZM209.423 14.4325H201.629C201.784 16.3761 203.145 17.3285 204.466 17.3285C205.691 17.3285 206.624 16.862 207.032 15.8708H209.306C208.839 17.5423 207.246 19.2527 204.564 19.2527C201.201 19.2527 199.277 16.7065 199.277 13.694C199.277 10.5453 201.434 8.31017 204.408 8.31017C207.615 8.31017 209.636 10.934 209.423 14.4325ZM204.408 10.1177C203.32 10.1177 201.843 10.7786 201.629 12.7416H207.071C207.012 11.109 205.769 10.1177 204.408 10.1177ZM217.905 11.9447C217.905 15.3849 219.752 17.2313 222.084 17.2313C224.417 17.2313 226.263 15.3849 226.263 11.9447C226.263 8.52397 224.417 6.67755 222.084 6.67755C219.752 6.67755 217.905 8.52397 217.905 11.9447ZM228.809 11.9447C228.809 16.279 226.224 19.2527 222.084 19.2527C217.944 19.2527 215.359 16.279 215.359 11.9447C215.359 7.59104 217.944 4.6562 222.084 4.6562C226.224 4.6562 228.809 7.59104 228.809 11.9447ZM233.188 13.7717C233.188 16.1818 234.373 17.3674 235.889 17.3674C237.522 17.3674 238.474 16.0068 238.474 13.7717C238.474 11.5754 237.522 10.1955 235.889 10.1955C234.373 10.1955 233.188 11.3616 233.188 13.7717ZM230.972 8.54341H233.285V9.9428C233.907 8.91269 234.995 8.31017 236.394 8.31017C238.96 8.31017 240.884 10.4287 240.884 13.7717C240.884 17.1341 238.96 19.2527 236.394 19.2527C234.995 19.2527 233.907 18.6502 233.285 17.62V22.4013H230.972V8.54341ZM252.338 14.4325H244.544C244.699 16.3761 246.06 17.3285 247.381 17.3285C248.606 17.3285 249.539 16.862 249.947 15.8708H252.221C251.754 17.5423 250.161 19.2527 247.478 19.2527C244.116 19.2527 242.192 16.7065 242.192 13.694C242.192 10.5453 244.349 8.31017 247.323 8.31017C250.53 8.31017 252.551 10.934 252.338 14.4325ZM247.323 10.1177C246.235 10.1177 244.757 10.7786 244.544 12.7416H249.986C249.927 11.109 248.684 10.1177 247.323 10.1177ZM256.555 8.54341V10.0011C257.157 8.91269 258.246 8.31017 259.723 8.31017C262.25 8.31017 263.28 9.9428 263.28 12.4306V19H260.967V12.9943C260.967 11.5754 260.772 10.1955 258.984 10.1955C257.196 10.1955 256.555 11.556 256.555 13.4413V19H254.242V8.54341H256.555ZM272.752 4.90887V16.9203H279.846V19H270.283V4.90887H272.752ZM290.602 14.4325H282.808C282.964 16.3761 284.324 17.3285 285.646 17.3285C286.871 17.3285 287.803 16.862 288.212 15.8708H290.486C290.019 17.5423 288.425 19.2527 285.743 19.2527C282.381 19.2527 280.457 16.7065 280.457 13.694C280.457 10.5453 282.614 8.31017 285.588 8.31017C288.795 8.31017 290.816 10.934 290.602 14.4325ZM285.588 10.1177C284.499 10.1177 283.022 10.7786 282.808 12.7416H288.25C288.192 11.109 286.948 10.1177 285.588 10.1177ZM298.979 14.8796V14.0827C295.675 14.3937 294.334 14.8796 294.334 16.0652C294.334 16.9787 295.092 17.5229 296.258 17.5229C297.968 17.5229 298.979 16.6677 298.979 14.8796ZM295.752 19.2527C293.478 19.2527 291.885 18.0282 291.885 16.1235C291.885 13.4996 295.111 12.8776 298.921 12.4695V12.2751C298.921 10.487 297.91 9.9428 296.744 9.9428C295.578 9.9428 294.703 10.5648 294.645 11.8281H292.371C292.526 9.70957 294.295 8.23243 296.821 8.23243C299.329 8.23243 301.292 9.37916 301.233 12.7222C301.233 13.2275 301.195 14.4714 301.195 15.4238C301.195 16.7454 301.292 18.1254 301.506 19H299.387C299.309 18.553 299.251 18.3003 299.193 17.5812C298.512 18.7279 297.307 19.2527 295.752 19.2527ZM310.511 9.9428V8.54341H312.824V17.9505C312.824 19.6414 312.396 20.8659 311.561 21.6433C310.725 22.4207 309.481 22.7706 307.848 22.7706C305.555 22.7706 303.747 21.8571 303.378 19.5636H305.671C305.885 20.5549 306.507 20.9436 307.907 20.9436C308.937 20.9436 309.597 20.6521 309.986 20.1856C310.375 19.7386 310.511 19.0972 310.511 18.4169V17.1924C309.889 18.2226 308.801 18.8251 307.401 18.8251C304.913 18.8251 302.853 16.8232 302.853 13.5579C302.853 10.2927 304.913 8.31017 307.401 8.31017C308.801 8.31017 309.889 8.91269 310.511 9.9428ZM310.608 13.5579C310.608 11.2256 309.403 10.1566 307.907 10.1566C306.352 10.1566 305.263 11.4588 305.263 13.5579C305.263 15.7153 306.352 16.9981 307.907 16.9981C309.403 16.9981 310.608 15.9097 310.608 13.5579ZM321.869 19V17.5617C321.266 18.6502 320.197 19.2527 318.779 19.2527C316.291 19.2527 315.28 17.62 315.28 15.1322V8.54341H317.593V14.5686C317.593 15.9874 317.787 17.3674 319.517 17.3674C321.247 17.3674 321.869 16.0068 321.869 14.1216V8.54341H324.182V19H321.869ZM336.231 14.4325H328.438C328.593 16.3761 329.954 17.3285 331.275 17.3285C332.5 17.3285 333.433 16.862 333.841 15.8708H336.115C335.648 17.5423 334.055 19.2527 331.372 19.2527C328.01 19.2527 326.086 16.7065 326.086 13.694C326.086 10.5453 328.243 8.31017 331.217 8.31017C334.424 8.31017 336.445 10.934 336.231 14.4325ZM331.217 10.1177C330.128 10.1177 328.651 10.7786 328.438 12.7416H333.88C333.821 11.109 332.577 10.1177 331.217 10.1177Z" fill="white"/>
<path d="M131.785 8.93L129.025 12.8L131.965 17H129.865L127.96 14.285L126.025 17H124.06L127 12.905L124.225 8.93H126.325L128.05 11.42L129.835 8.93H131.785Z" fill="white"/>
<defs>
<clipPath id="clip0_101_31">
<rect width="116" height="24" fill="white"/>
</clipPath>
</defs>
</svg>
