<svg width="210" height="15" viewBox="0 0 210 15" fill="none" xmlns="http://www.w3.org/2000/svg">
<g clip-path="url(#clip0_101_175)">
<path d="M9.26506 10.8678C9.35655 10.8066 9.48324 10.8459 9.52078 10.9471L10.9433 14.7808C10.989 14.9041 10.8738 15.0268 10.7424 14.9946L5.50487 13.7125C5.36399 13.678 5.33061 13.4994 5.4501 13.4195L9.26506 10.8678Z" fill="white"/>
<path d="M10.185 10.0218C10.1784 10.0041 10.1751 9.98539 10.1751 9.9666V6.10284C10.1751 5.99357 10.0663 5.91501 9.95777 5.94598L5.46982 7.22742C5.36136 7.25839 5.25256 7.17983 5.25256 7.07056V4.57351C5.25256 4.52247 5.27722 4.47436 5.31925 4.44342L11.1676 0.137376C11.2489 0.0775295 11.3661 0.100381 11.417 0.185998L14.95 6.12812C14.9751 6.17023 14.9794 6.22089 14.962 6.26642L11.9875 14.0266C11.9326 14.1697 11.7227 14.1686 11.6694 14.0249L10.185 10.0218Z" fill="white"/>
<path d="M3.75486 0.472305C3.78308 0.445583 3.82014 0.429252 3.85953 0.426147L9.25742 0.000791968C9.42603 -0.0124947 9.50831 0.195043 9.37367 0.294005L4.7728 3.67565C4.73021 3.70695 4.67481 3.71696 4.62339 3.70264L1.59369 2.85885C1.46907 2.82414 1.42947 2.67248 1.52213 2.58481L3.75486 0.472305Z" fill="white"/>
<path d="M0.750728 3.70793C0.763635 3.60816 0.865767 3.54316 0.965734 3.57108L4.17665 4.46807C4.24909 4.48828 4.29892 4.55233 4.29892 4.62519V8.25687C4.29892 8.36618 4.40783 8.44474 4.51632 8.41369L8.97313 7.13796C9.08163 7.10691 9.19053 7.18547 9.19053 7.29478V9.60156C9.19053 9.65511 9.16335 9.70528 9.11783 9.73588L4.11895 13.0929C4.05375 13.1367 3.96582 13.1309 3.90749 13.0788L0.0544571 9.64187C0.0143257 9.6061 -0.00546516 9.55378 0.00130866 9.50143L0.750728 3.70793Z" fill="white"/>
<path d="M24.1867 13.0524C23.418 13.0524 22.6822 12.9435 21.9791 12.7258C21.276 12.4986 20.7182 12.2098 20.3058 11.8595L20.9385 10.4252C21.3323 10.7376 21.8197 10.998 22.4009 11.2063C22.9821 11.4146 23.5774 11.5187 24.1867 11.5187C24.7023 11.5187 25.1195 11.4619 25.4382 11.3483C25.7569 11.2347 25.9912 11.0832 26.1413 10.8939C26.2912 10.695 26.3662 10.4725 26.3662 10.2264C26.3662 9.92344 26.2584 9.68202 26.0428 9.50214C25.8272 9.3128 25.546 9.16607 25.1991 9.06193C24.8617 8.94831 24.482 8.84417 24.0602 8.74949C23.6477 8.65484 23.2305 8.54594 22.8087 8.42287C22.3962 8.29034 22.0166 8.12467 21.6697 7.92585C21.3323 7.71758 21.0557 7.44301 20.8401 7.10217C20.6245 6.76138 20.5167 6.32586 20.5167 5.79569C20.5167 5.25608 20.6573 4.76375 20.9385 4.31881C21.2292 3.86436 21.665 3.50461 22.2462 3.23952C22.8368 2.96497 23.5821 2.8277 24.482 2.8277C25.0726 2.8277 25.6585 2.90344 26.2397 3.05491C26.8209 3.20639 27.3271 3.42414 27.7583 3.70816L27.1818 5.14245C26.7412 4.87737 26.2865 4.68331 25.8178 4.5602C25.3491 4.42768 24.8992 4.36141 24.468 4.36141C23.9618 4.36141 23.5493 4.42295 23.2305 4.54602C22.9212 4.6691 22.6915 4.83004 22.5415 5.02887C22.4009 5.22765 22.3306 5.45486 22.3306 5.71049C22.3306 6.01345 22.4337 6.2596 22.64 6.44893C22.8556 6.62882 23.1321 6.77083 23.4696 6.87496C23.8164 6.9791 24.2008 7.08327 24.6226 7.18741C25.0445 7.28206 25.4616 7.39096 25.8741 7.51403C26.2959 7.6371 26.6756 7.79805 27.013 7.99683C27.3599 8.19566 27.6364 8.4655 27.8427 8.8063C28.0583 9.14713 28.1661 9.57789 28.1661 10.0986C28.1661 10.6288 28.0208 11.1211 27.7302 11.5755C27.449 12.0204 27.013 12.3802 26.4225 12.6548C25.8319 12.9199 25.0866 13.0524 24.1867 13.0524Z" fill="white"/>
<path d="M31.8385 12.9106V4.53201H28.5763V2.96991H36.9287V4.53201H33.6665V12.9106H31.8385Z" fill="white"/>
<path d="M42.7747 13.0524C42.0061 13.0524 41.2984 12.9246 40.6516 12.669C40.0048 12.4134 39.4423 12.0583 38.964 11.6039C38.4861 11.14 38.1156 10.6003 37.8531 9.98498C37.5909 9.36016 37.4595 8.6785 37.4595 7.94006C37.4595 7.20158 37.5909 6.52468 37.8531 5.90932C38.1156 5.28446 38.4861 4.74485 38.964 4.29039C39.4423 3.82648 40.0048 3.46674 40.6516 3.21113C41.2984 2.95551 42.0013 2.8277 42.7606 2.8277C43.5292 2.8277 44.2325 2.95551 44.87 3.21113C45.5168 3.46674 46.079 3.82648 46.5573 4.29039C47.0351 4.74485 47.4057 5.28446 47.6682 5.90932C47.9307 6.52468 48.0618 7.20158 48.0618 7.94006C48.0618 8.6785 47.9307 9.36016 47.6682 9.98498C47.4057 10.6098 47.0351 11.1495 46.5573 11.6039C46.079 12.0583 45.5168 12.4134 44.87 12.669C44.2325 12.9246 43.5341 13.0524 42.7747 13.0524ZM42.7606 11.4335C43.2574 11.4335 43.7167 11.3483 44.1386 11.1779C44.5604 11.0074 44.9261 10.7661 45.2354 10.4536C45.5447 10.1317 45.7838 9.7625 45.9524 9.34595C46.1306 8.91992 46.2197 8.45129 46.2197 7.94006C46.2197 7.42883 46.1306 6.96492 45.9524 6.54834C45.7838 6.12231 45.5447 5.75309 45.2354 5.44069C44.9261 5.11879 44.5604 4.87264 44.1386 4.70221C43.7167 4.53181 43.2574 4.44661 42.7606 4.44661C42.2638 4.44661 41.8045 4.53181 41.3827 4.70221C40.9702 4.87264 40.6044 5.11879 40.2859 5.44069C39.9766 5.75309 39.7326 6.12231 39.5548 6.54834C39.3858 6.96492 39.3015 7.42883 39.3015 7.94006C39.3015 8.4418 39.3858 8.90571 39.5548 9.33174C39.7326 9.75777 39.9766 10.1317 40.2859 10.4536C40.5952 10.7661 40.9609 11.0074 41.3827 11.1779C41.8045 11.3483 42.2638 11.4335 42.7606 11.4335Z" fill="white"/>
<path d="M49.9978 12.9106V2.96991H51.5023L57.6753 10.6242H56.9301V2.96991H58.744V12.9106H57.2394L51.0664 5.25628H51.812V12.9106H49.9978Z" fill="white"/>
<path d="M61.7755 13.0099C61.4569 13.0099 61.1847 12.901 60.9597 12.6833C60.7351 12.4561 60.6226 12.172 60.6226 11.8312C60.6226 11.4714 60.7351 11.1874 60.9597 10.9791C61.1847 10.7614 61.4569 10.6525 61.7755 10.6525C62.094 10.6525 62.3658 10.7614 62.5909 10.9791C62.8159 11.1874 62.9284 11.4714 62.9284 11.8312C62.9284 12.172 62.8159 12.4561 62.5909 12.6833C62.3658 12.901 62.094 13.0099 61.7755 13.0099Z" fill="white"/>
<path d="M64.8174 12.9105V4.90118C64.8174 4.10593 65.0469 3.47163 65.5062 2.99826C65.9751 2.51543 66.6405 2.27401 67.5031 2.27401C67.8124 2.27401 68.1031 2.30715 68.3749 2.37342C68.656 2.43969 68.8903 2.54383 69.0778 2.68584L68.5999 4.02073C68.4685 3.9166 68.3185 3.84085 68.1499 3.79352C67.9809 3.73671 67.8075 3.70831 67.6297 3.70831C67.264 3.70831 66.9873 3.81246 66.7998 4.02073C66.6123 4.21955 66.5187 4.52251 66.5187 4.92961V5.78167L66.5748 6.57692V12.9105H64.8174ZM63.5798 6.80413V5.38402H68.5858V6.80413H63.5798ZM69.823 12.9105V5.32721H71.5808V12.9105H69.823ZM70.7089 4.07754C70.3807 4.07754 70.1089 3.97341 69.8935 3.7651C69.6871 3.55683 69.5839 3.30595 69.5839 3.01246C69.5839 2.70951 69.6871 2.45862 69.8935 2.25981C70.1089 2.05153 70.3807 1.94739 70.7089 1.94739C71.0372 1.94739 71.3041 2.04679 71.5106 2.24561C71.726 2.43496 71.834 2.67637 71.834 2.96986C71.834 3.28228 71.7308 3.54736 71.5247 3.7651C71.3183 3.97341 71.0465 4.07754 70.7089 4.07754Z" fill="white"/>
</g>
<path d="M103.506 7.37519C103.506 10.2543 101.188 12.5835 98.3344 12.5835C95.4805 12.5835 93.1622 10.2543 93.1622 7.37519C93.1622 4.49609 95.4805 2.16687 98.3344 2.16687C101.188 2.16687 103.506 4.49609 103.506 7.37519Z" stroke="white" stroke-width="0.863042"/>
<ellipse cx="93.1622" cy="7.37519" rx="5.60365" ry="5.63984" fill="white"/>
<path d="M111.926 11V3.52088H109.172V2.24012H116.216V3.52088H113.461V11H111.926ZM118.521 2.24012V5.40576C118.895 4.72914 119.572 4.35458 120.49 4.35458C122.061 4.35458 122.701 5.36951 122.701 6.91608V11H121.264V7.26648C121.264 6.38445 121.143 5.52659 120.031 5.52659C118.92 5.52659 118.521 6.37237 118.521 7.54438V11H117.083V2.24012H118.521ZM130.07 8.16059H125.225C125.322 9.36885 126.167 9.9609 126.989 9.9609C127.75 9.9609 128.33 9.67092 128.584 9.0547H129.998C129.708 10.0938 128.717 11.1571 127.05 11.1571C124.959 11.1571 123.763 9.57425 123.763 7.70145C123.763 5.74407 125.104 4.35458 126.953 4.35458C128.946 4.35458 130.203 5.98573 130.07 8.16059ZM126.953 5.47826C126.276 5.47826 125.358 5.88906 125.225 7.10941H128.608C128.572 6.09447 127.799 5.47826 126.953 5.47826ZM135.344 6.61402C135.344 8.75264 136.491 9.90048 137.941 9.90048C139.391 9.90048 140.539 8.75264 140.539 6.61402C140.539 4.48748 139.391 3.33964 137.941 3.33964C136.491 3.33964 135.344 4.48748 135.344 6.61402ZM142.122 6.61402C142.122 9.30844 140.515 11.1571 137.941 11.1571C135.368 11.1571 133.761 9.30844 133.761 6.61402C133.761 3.90752 135.368 2.08305 137.941 2.08305C140.515 2.08305 142.122 3.90752 142.122 6.61402ZM144.844 7.74978C144.844 9.24802 145.581 9.98506 146.523 9.98506C147.538 9.98506 148.13 9.13928 148.13 7.74978C148.13 6.38445 147.538 5.52659 146.523 5.52659C145.581 5.52659 144.844 6.25154 144.844 7.74978ZM143.466 4.49957H144.904V5.36951C145.291 4.72914 145.968 4.35458 146.837 4.35458C148.432 4.35458 149.629 5.67158 149.629 7.74978C149.629 9.84007 148.432 11.1571 146.837 11.1571C145.968 11.1571 145.291 10.7825 144.904 10.1421V13.1145H143.466V4.49957ZM156.749 8.16059H151.903C152 9.36885 152.846 9.9609 153.668 9.9609C154.429 9.9609 155.009 9.67092 155.262 9.0547H156.676C156.386 10.0938 155.395 11.1571 153.728 11.1571C151.638 11.1571 150.441 9.57425 150.441 7.70145C150.441 5.74407 151.783 4.35458 153.631 4.35458C155.625 4.35458 156.882 5.98573 156.749 8.16059ZM153.631 5.47826C152.955 5.47826 152.036 5.88906 151.903 7.10941H155.287C155.25 6.09447 154.477 5.47826 153.631 5.47826ZM159.37 4.49957V5.40576C159.745 4.72914 160.422 4.35458 161.34 4.35458C162.911 4.35458 163.551 5.36951 163.551 6.91608V11H162.113V7.26648C162.113 6.38445 161.992 5.52659 160.881 5.52659C159.769 5.52659 159.37 6.37237 159.37 7.54438V11H157.933V4.49957H159.37ZM169.439 2.24012V9.70716H173.849V11H167.905V2.24012H169.439ZM180.536 8.16059H175.691C175.788 9.36885 176.634 9.9609 177.455 9.9609C178.216 9.9609 178.796 9.67092 179.05 9.0547H180.464C180.174 10.0938 179.183 11.1571 177.516 11.1571C175.425 11.1571 174.229 9.57425 174.229 7.70145C174.229 5.74407 175.57 4.35458 177.419 4.35458C179.413 4.35458 180.669 5.98573 180.536 8.16059ZM177.419 5.47826C176.742 5.47826 175.824 5.88906 175.691 7.10941H179.074C179.038 6.09447 178.265 5.47826 177.419 5.47826ZM185.744 8.43849V7.9431C183.69 8.13643 182.856 8.43849 182.856 9.17553C182.856 9.74341 183.327 10.0817 184.052 10.0817C185.115 10.0817 185.744 9.55009 185.744 8.43849ZM183.738 11.1571C182.324 11.1571 181.333 10.3959 181.333 9.21178C181.333 7.58063 183.339 7.19398 185.707 6.94025V6.81942C185.707 5.70783 185.079 5.36951 184.354 5.36951C183.629 5.36951 183.085 5.75616 183.049 6.54152H181.636C181.732 5.22452 182.832 4.30625 184.402 4.30625C185.961 4.30625 187.181 5.01912 187.145 7.09732C187.145 7.41147 187.121 8.18476 187.121 8.7768C187.121 9.59842 187.181 10.4563 187.314 11H185.997C185.949 10.7221 185.913 10.565 185.877 10.118C185.454 10.8308 184.705 11.1571 183.738 11.1571ZM192.913 5.36951V4.49957H194.35V10.3475C194.35 11.3987 194.085 12.1599 193.565 12.6432C193.046 13.1265 192.272 13.344 191.257 13.344C189.832 13.344 188.708 12.7761 188.478 11.3504H189.904C190.037 11.9666 190.424 12.2083 191.294 12.2083C191.934 12.2083 192.345 12.027 192.586 11.737C192.828 11.4591 192.913 11.0604 192.913 10.6375V9.87632C192.526 10.5167 191.849 10.8913 190.979 10.8913C189.433 10.8913 188.152 9.64675 188.152 7.61688C188.152 5.587 189.433 4.35458 190.979 4.35458C191.849 4.35458 192.526 4.72914 192.913 5.36951ZM192.973 7.61688C192.973 6.16696 192.224 5.50242 191.294 5.50242C190.327 5.50242 189.65 6.31196 189.65 7.61688C189.65 8.95804 190.327 9.75549 191.294 9.75549C192.224 9.75549 192.973 9.07887 192.973 7.61688ZM199.973 11V10.1059C199.599 10.7825 198.934 11.1571 198.052 11.1571C196.506 11.1571 195.877 10.1421 195.877 8.59556V4.49957H197.315V8.24517C197.315 9.1272 197.436 9.98506 198.511 9.98506C199.587 9.98506 199.973 9.13928 199.973 7.96727V4.49957H201.411V11H199.973ZM208.902 8.16059H204.057C204.154 9.36885 204.999 9.9609 205.821 9.9609C206.582 9.9609 207.162 9.67092 207.416 9.0547H208.829C208.539 10.0938 207.549 11.1571 205.881 11.1571C203.791 11.1571 202.595 9.57425 202.595 7.70145C202.595 5.74407 203.936 4.35458 205.785 4.35458C207.778 4.35458 209.035 5.98573 208.902 8.16059ZM205.785 5.47826C205.108 5.47826 204.19 5.88906 204.057 7.10941H207.44C207.404 6.09447 206.63 5.47826 205.785 5.47826Z" fill="white"/>
<path d="M81.8413 5.85821L80.1255 8.26403L81.9532 10.875H80.6477L79.4635 9.1872L78.2606 10.875H77.039L78.8667 8.32931L77.1416 5.85821H78.4471L79.5194 7.40614L80.6291 5.85821H81.8413Z" fill="white"/>
<defs>
<clipPath id="clip0_101_175">
<rect width="72.0337" height="14.9998" fill="white" transform="translate(0 0.000244141)"/>
</clipPath>
</defs>
</svg>
