<svg width="160" height="60" viewBox="0 0 160 60" fill="none" xmlns="http://www.w3.org/2000/svg">
<g clip-path="url(#clip0_101_122)">
<path d="M49.8383 37.711V25.8107H45.2771V23.1959H57.576V25.8107H53.0148V37.711H49.8383Z" fill="#707070"/>
<path d="M58.0231 30.4431C58.0231 28.9334 58.3014 27.6224 58.8579 26.5107C59.4281 25.3852 60.2425 24.5136 61.3013 23.8959C62.3604 23.2783 63.616 22.9695 65.0686 22.9695C66.5211 22.9695 67.7768 23.2783 68.8356 23.8959C69.8945 24.5136 70.7089 25.3852 71.2791 26.5107C71.8628 27.6224 72.1547 28.9265 72.1547 30.4226C72.1547 31.9461 71.8628 33.2706 71.2791 34.3962C70.7089 35.508 69.8945 36.3797 68.8356 37.011C67.7768 37.6287 66.5211 37.9376 65.0686 37.9376C63.616 37.9376 62.3604 37.6287 61.3013 37.011C60.2561 36.3797 59.4484 35.5013 58.8783 34.3757C58.3081 33.2502 58.0231 31.9393 58.0231 30.4431ZM61.3421 30.4431C61.3421 31.9393 61.6476 33.1129 62.2585 33.9638C62.8829 34.8011 63.8196 35.2198 65.0686 35.2198C66.2903 35.2198 67.2202 34.8011 67.8583 33.9638C68.4962 33.1129 68.8151 31.9393 68.8151 30.4431C68.8151 28.9334 68.4962 27.7666 67.8583 26.9432C67.2338 26.1058 66.3039 25.6872 65.0686 25.6872C63.8196 25.6872 62.8829 26.1058 62.2585 26.9432C61.6476 27.7666 61.3421 28.9334 61.3421 30.4431Z" fill="#707070"/>
<path d="M74.6364 37.7111V23.1959H76.9985L84.7973 33.2227H84.2474V23.1959H87.2V37.7111H84.8379L77.0594 27.6844H77.589V37.7111H74.6364Z" fill="#707070"/>
<path d="M99.8874 37.7111L94.7966 23.1959H98.075L101.72 34.3962H100.845L104.815 23.1959H107.136L110.781 34.3962H109.967L113.835 23.1959H116.91L111.779 37.7111H109.193L105.67 27.396H106.139L102.494 37.7111H99.8874Z" fill="#707070"/>
<path d="M121.337 37.9375C120.441 37.9375 119.653 37.718 118.974 37.2787C118.296 36.8395 117.767 36.2149 117.387 35.4052C117.006 34.5953 116.816 33.6208 116.816 32.4814C116.816 31.3559 117.006 30.3882 117.387 29.5784C117.767 28.7686 118.296 28.1509 118.974 27.7254C119.653 27.2863 120.441 27.0667 121.337 27.0667C122.165 27.0667 122.905 27.2725 123.557 27.6843C124.222 28.0823 124.656 28.6245 124.859 29.3108H124.635L124.88 27.2725H127.832C127.791 27.7254 127.751 28.1853 127.71 28.652C127.683 29.1049 127.669 29.5509 127.669 29.9903V37.7111H124.616L124.595 35.7551H124.839C124.621 36.4139 124.188 36.9424 123.536 37.3405C122.884 37.7384 122.151 37.9375 121.337 37.9375ZM122.273 35.5903C122.979 35.5903 123.55 35.3365 123.984 34.8287C124.419 34.3207 124.635 33.5384 124.635 32.4814C124.635 31.4245 124.419 30.6492 123.984 30.1549C123.55 29.6608 122.979 29.4137 122.273 29.4137C121.568 29.4137 120.998 29.6608 120.563 30.1549C120.129 30.6492 119.911 31.4245 119.911 32.4814C119.911 33.5384 120.122 34.3207 120.543 34.8287C120.977 35.3365 121.555 35.5903 122.273 35.5903Z" fill="#707070"/>
<path d="M130.191 37.7108V22.5574H133.265V37.7108H130.191Z" fill="#707070"/>
<path d="M135.781 37.7108V22.5574H138.855V37.7108H135.781Z" fill="#707070"/>
<path d="M146.56 37.9375C144.769 37.9375 143.37 37.4502 142.366 36.4756C141.362 35.5011 140.859 34.1766 140.859 32.5021C140.859 31.4177 141.07 30.4706 141.49 29.6608C141.925 28.851 142.522 28.2196 143.282 27.7665C144.056 27.3 144.959 27.0667 145.99 27.0667C147.009 27.0667 147.857 27.2863 148.536 27.7254C149.228 28.1647 149.744 28.7824 150.083 29.5784C150.436 30.3609 150.613 31.2735 150.613 32.3167V33.0375H143.384V31.4932H148.373L148.027 31.7816C148.027 30.9167 147.851 30.2648 147.497 29.8255C147.158 29.3726 146.662 29.1461 146.011 29.1461C145.292 29.1461 144.735 29.4137 144.341 29.949C143.961 30.4844 143.771 31.2531 143.771 32.255V32.5845C143.771 33.6002 144.015 34.3551 144.504 34.8492C145.007 35.3434 145.725 35.5903 146.662 35.5903C147.219 35.5903 147.742 35.5217 148.231 35.3845C148.732 35.2335 149.208 35.0001 149.656 34.6844L150.511 36.7434C149.995 37.1278 149.398 37.4229 148.719 37.6287C148.054 37.8346 147.335 37.9375 146.56 37.9375Z" fill="#707070"/>
<path d="M157.329 37.9373C155.985 37.9373 154.974 37.6009 154.295 36.9283C153.616 36.2421 153.276 35.2194 153.276 33.8606V29.5987H151.322V27.2721H153.276V24.7192L156.351 23.9573V27.2721H158.998V29.5987H156.351V33.6959C156.351 34.3547 156.487 34.8077 156.759 35.0546C157.03 35.3017 157.376 35.4254 157.797 35.4254C158.055 35.4254 158.266 35.4117 158.428 35.3841C158.604 35.343 158.788 35.288 158.978 35.2194V37.6284C158.72 37.7381 158.448 37.8136 158.164 37.8549C157.879 37.9097 157.601 37.9373 157.329 37.9373Z" fill="#707070"/>
<path fill-rule="evenodd" clip-rule="evenodd" d="M18.7011 48.1565C28.624 48.1565 36.668 40.0229 36.668 29.9898C36.668 19.9566 28.624 11.8231 18.7011 11.8231C8.77817 11.8231 0.73407 19.9566 0.73407 29.9898C0.73407 40.0229 8.77817 48.1565 18.7011 48.1565ZM23.55 23.9343H13.4728C13.2031 23.9343 12.7755 23.9358 12.3535 24.1352C11.96 24.3212 11.6328 24.625 11.4155 25.0049C11.1981 25.3849 11.1009 25.8231 11.1365 26.2603C11.1752 26.7359 11.3963 27.1045 11.5393 27.3428L11.5422 27.3477L11.5447 27.3517L17.7943 38.3862C17.933 38.6311 18.1905 38.7825 18.4695 38.7834C18.7486 38.7844 19.007 38.6349 19.1474 38.3912L25.5141 27.333L25.5168 27.3282L25.52 27.3227C25.7242 26.955 25.8154 26.533 25.8154 26.1459C25.8154 25.7384 25.7149 25.3595 25.52 25.0086C25.5088 24.9885 25.4968 24.9688 25.4838 24.9497C25.3179 24.7046 25.0814 24.3729 24.6352 24.1627C24.2628 23.9872 23.9066 23.9343 23.55 23.9343ZM13.4728 25.514H17.6912V35.0251L12.8956 26.5581C12.8924 26.5525 12.8891 26.5469 12.8858 26.5413C12.726 26.275 12.6989 26.198 12.6935 26.1308C12.684 26.0138 12.7101 25.8968 12.7679 25.7958C12.8257 25.6947 12.912 25.6149 13.0148 25.5664C13.0892 25.5312 13.1957 25.514 13.4728 25.514ZM19.2536 35.067V25.514H23.55C23.7403 25.514 23.8589 25.5397 23.975 25.5945C24.0029 25.6076 24.0226 25.6217 24.0482 25.6481C24.0778 25.679 24.1137 25.7241 24.1722 25.8093C24.2281 25.9183 24.253 26.0241 24.253 26.1459C24.253 26.296 24.2154 26.4429 24.1601 26.5447L19.2536 35.067Z" fill="#707070"/>
</g>
<defs>
<clipPath id="clip0_101_122">
<rect width="159.947" height="59.98" fill="white" transform="translate(0.0153198)"/>
</clipPath>
</defs>
</svg>
