<svg width="160" height="60" viewBox="0 0 160 60" fill="none" xmlns="http://www.w3.org/2000/svg">
<g clip-path="url(#clip0_101_99)">
<g clip-path="url(#clip1_101_99)">
<g clip-path="url(#clip2_101_99)">
<mask id="mask0_101_99" style="mask-type:luminance" maskUnits="userSpaceOnUse" x="0" y="14" width="160" height="31">
<path d="M159.965 14.995H0.0184937V44.7525H159.965V14.995Z" fill="white"/>
</mask>
<g mask="url(#mask0_101_99)">
<mask id="mask1_101_99" style="mask-type:luminance" maskUnits="userSpaceOnUse" x="0" y="14" width="160" height="31">
<path d="M159.261 14.995H0.0184937V44.7525H159.261V14.995Z" fill="white"/>
</mask>
<g mask="url(#mask1_101_99)">
<path opacity="0.5" d="M14.497 28.5783L28.7948 22.0995L14.497 44.6634V28.5783Z" fill="#707070"/>
<path opacity="0.75" d="M14.496 28.5784L0.19812 22.0995L14.496 44.6634V28.5784Z" fill="#707070"/>
<path d="M14.4961 28.5785L0.198181 22.0997L14.4961 15.621L28.794 22.0997L14.4961 28.5785Z" fill="#707070"/>
<path d="M44.3551 37.8007V25.5364H39.5185V22.6862H52.6895V25.5364H47.8529V37.8007H44.3551Z" fill="#707070"/>
<path d="M58.6792 37.9734C57.4412 37.9734 56.3401 37.7143 55.3756 37.1961C54.4256 36.6778 53.6699 35.9725 53.1085 35.0801C52.5615 34.1732 52.288 33.144 52.288 31.9924C52.288 30.8264 52.5615 29.7971 53.1085 28.9047C53.6699 27.9978 54.4256 27.2925 55.3756 26.7887C56.3401 26.2705 57.4412 26.0114 58.6792 26.0114C59.9028 26.0114 60.9968 26.2705 61.9612 26.7887C62.9257 27.2925 63.6814 27.9906 64.2283 28.8831C64.7754 29.7756 65.0489 30.812 65.0489 31.9924C65.0489 33.144 64.7754 34.1732 64.2283 35.0801C63.6814 35.9725 62.9257 36.6778 61.9612 37.1961C60.9968 37.7143 59.9028 37.9734 58.6792 37.9734ZM58.6792 35.2095C59.2406 35.2095 59.7444 35.0801 60.1907 34.8209C60.6368 34.5618 60.9896 34.1948 61.2487 33.7198C61.5077 33.2303 61.6373 32.6544 61.6373 31.9924C61.6373 31.3158 61.5077 30.7401 61.2487 30.2649C60.9896 29.79 60.6368 29.4229 60.1907 29.1638C59.7444 28.9047 59.2406 28.7752 58.6792 28.7752C58.1179 28.7752 57.614 28.9047 57.1677 29.1638C56.7214 29.4229 56.3617 29.79 56.0882 30.2649C55.829 30.7401 55.6996 31.3158 55.6996 31.9924C55.6996 32.6544 55.829 33.2303 56.0882 33.7198C56.3617 34.1948 56.7214 34.5618 57.1677 34.8209C57.614 35.0801 58.1179 35.2095 58.6792 35.2095Z" fill="#707070"/>
<path d="M74.3622 26.0114C75.2835 26.0114 76.104 26.1985 76.8237 26.5728C77.5579 26.9327 78.1337 27.4941 78.5512 28.2569C78.9685 29.0055 79.1773 29.9698 79.1773 31.1502V37.8006H75.8089V31.6685C75.8089 30.7329 75.6002 30.0419 75.1828 29.5957C74.7796 29.1494 74.204 28.9264 73.4554 28.9264C72.9227 28.9264 72.4406 29.0414 72.0087 29.2718C71.5913 29.4877 71.2602 29.826 71.0155 30.2866C70.7852 30.7473 70.67 31.3375 70.67 32.0571V37.8006H67.3017V26.1841H70.5188V29.4013L69.9143 28.4297C70.3318 27.6524 70.9292 27.055 71.7064 26.6376C72.4838 26.2201 73.369 26.0114 74.3622 26.0114Z" fill="#707070"/>
<path d="M85.0149 35.4256L85.1012 31.3231L90.5208 26.1841H94.5369L89.3332 31.4743L87.5844 32.8992L85.0149 35.4256ZM82.2294 37.8007V21.7793H85.5978V37.8007H82.2294ZM90.8879 37.8007L86.9581 32.9208L89.0741 30.3083L94.9688 37.8007H90.8879Z" fill="#707070"/>
<path d="M101.765 37.9733C100.44 37.9733 99.2743 37.7142 98.2666 37.1961C97.2732 36.6777 96.5032 35.9725 95.9563 35.0801C95.4093 34.1732 95.1357 33.1439 95.1357 31.9923C95.1357 30.8263 95.4021 29.797 95.9346 28.9046C96.4816 27.9977 97.2229 27.2925 98.1585 26.7886C99.0942 26.2704 100.152 26.0113 101.333 26.0113C102.47 26.0113 103.492 26.256 104.399 26.7455C105.32 27.2205 106.047 27.9115 106.58 28.8183C107.112 29.7108 107.379 30.7832 107.379 32.0355C107.379 32.1651 107.372 32.3162 107.357 32.4889C107.343 32.6472 107.328 32.7983 107.314 32.9423H97.8778V30.9775H105.543L104.248 31.5605C104.248 30.9559 104.125 30.4305 103.881 29.9843C103.636 29.538 103.298 29.1925 102.866 28.9479C102.434 28.6887 101.929 28.5592 101.355 28.5592C100.779 28.5592 100.267 28.6887 99.8212 28.9479C99.3893 29.1925 99.051 29.5452 98.8064 30.0059C98.5617 30.4521 98.4392 30.9846 98.4392 31.6036V32.1219C98.4392 32.7553 98.576 33.3167 98.8496 33.806C99.1375 34.281 99.5333 34.6482 100.037 34.9072C100.555 35.152 101.16 35.2743 101.851 35.2743C102.47 35.2743 103.01 35.1807 103.47 34.9936C103.945 34.8065 104.377 34.5258 104.766 34.1515L106.558 36.0947C106.025 36.6993 105.356 37.1673 104.55 37.4984C103.744 37.815 102.815 37.9733 101.765 37.9733Z" fill="#707070"/>
<path d="M115.386 37.9734C114.061 37.9734 112.895 37.7143 111.888 37.1961C110.894 36.6778 110.124 35.9725 109.578 35.0801C109.03 34.1732 108.757 33.144 108.757 31.9924C108.757 30.8264 109.023 29.7971 109.556 28.9047C110.102 27.9978 110.844 27.2925 111.78 26.7887C112.715 26.2705 113.773 26.0114 114.954 26.0114C116.09 26.0114 117.113 26.2561 118.02 26.7455C118.941 27.2206 119.668 27.9115 120.2 28.8183C120.733 29.7108 121 30.7833 121 32.0356C121 32.1651 120.992 32.3163 120.978 32.489C120.964 32.6472 120.949 32.7984 120.935 32.9423H111.499V30.9775H119.164L117.869 31.5605C117.869 30.9559 117.746 30.4306 117.502 29.9843C117.257 29.5381 116.918 29.1926 116.486 28.948C116.054 28.6888 115.551 28.5592 114.975 28.5592C114.399 28.5592 113.888 28.6888 113.442 28.948C113.01 29.1926 112.672 29.5453 112.428 30.0059C112.183 30.4522 112.061 30.9847 112.061 31.6037V32.1219C112.061 32.7553 112.197 33.3167 112.471 33.8061C112.758 34.2811 113.154 34.6483 113.658 34.9073C114.176 35.152 114.781 35.2744 115.472 35.2744C116.09 35.2744 116.63 35.1808 117.091 34.9937C117.566 34.8065 117.998 34.5258 118.387 34.1515L120.179 36.0948C119.646 36.6994 118.977 37.1673 118.171 37.4984C117.365 37.815 116.436 37.9734 115.386 37.9734Z" fill="#707070"/>
<path d="M130.109 37.9734C129.131 37.9734 128.274 37.7574 127.54 37.3257C126.806 36.8938 126.231 36.2387 125.813 35.3606C125.409 34.4683 125.207 33.3455 125.207 31.9924C125.207 30.6249 125.402 29.5021 125.79 28.624C126.18 27.746 126.742 27.091 127.476 26.6591C128.209 26.2273 129.087 26.0114 130.109 26.0114C131.203 26.0114 132.182 26.2633 133.047 26.7671C133.925 27.2565 134.615 27.9475 135.119 28.8399C135.637 29.7324 135.896 30.7833 135.896 31.9924C135.896 33.216 135.637 34.2739 135.119 35.1664C134.615 36.0589 133.925 36.7499 133.047 37.2392C132.182 37.7287 131.203 37.9734 130.109 37.9734ZM123.243 41.9895V26.1841H126.46V28.5592L126.396 32.014L126.611 35.4471V41.9895H123.243ZM129.526 35.2095C130.088 35.2095 130.584 35.0801 131.017 34.8209C131.463 34.5618 131.815 34.1948 132.074 33.7198C132.348 33.2303 132.485 32.6544 132.485 31.9924C132.485 31.3158 132.348 30.7401 132.074 30.2649C131.815 29.79 131.463 29.4229 131.017 29.1638C130.584 28.9047 130.088 28.7752 129.526 28.7752C128.964 28.7752 128.461 28.9047 128.015 29.1638C127.569 29.4229 127.217 29.79 126.957 30.2649C126.698 30.7401 126.568 31.3158 126.568 31.9924C126.568 32.6544 126.698 33.2303 126.957 33.7198C127.217 34.1948 127.569 34.5618 128.015 34.8209C128.461 35.0801 128.964 35.2095 129.526 35.2095Z" fill="#707070"/>
<path d="M143.916 37.9734C142.592 37.9734 141.425 37.7143 140.418 37.1961C139.424 36.6778 138.654 35.9725 138.107 35.0801C137.56 34.1732 137.286 33.144 137.286 31.9924C137.286 30.8264 137.553 29.7971 138.086 28.9047C138.633 27.9978 139.374 27.2925 140.309 26.7887C141.246 26.2705 142.303 26.0114 143.483 26.0114C144.622 26.0114 145.643 26.2561 146.55 26.7455C147.471 27.2206 148.198 27.9115 148.73 28.8183C149.264 29.7108 149.529 30.7833 149.529 32.0356C149.529 32.1651 149.523 32.3163 149.508 32.489C149.493 32.6472 149.479 32.7984 149.465 32.9423H140.029V30.9775H147.694L146.398 31.5605C146.398 30.9559 146.277 30.4306 146.031 29.9843C145.787 29.5381 145.448 29.1926 145.018 28.948C144.586 28.6888 144.081 28.5592 143.506 28.5592C142.929 28.5592 142.418 28.6888 141.972 28.948C141.541 29.1926 141.202 29.5453 140.958 30.0059C140.713 30.4522 140.591 30.9847 140.591 31.6037V32.1219C140.591 32.7553 140.727 33.3167 141.001 33.8061C141.289 34.2811 141.685 34.6483 142.187 34.9073C142.706 35.152 143.311 35.2744 144.002 35.2744C144.622 35.2744 145.16 35.1808 145.621 34.9937C146.097 34.8065 146.529 34.5258 146.917 34.1515L148.709 36.0948C148.176 36.6994 147.507 37.1673 146.701 37.4984C145.895 37.815 144.967 37.9734 143.916 37.9734Z" fill="#707070"/>
<path d="M151.772 37.8006V26.1841H154.989V29.4661L154.535 28.5161C154.881 27.6955 155.436 27.0766 156.199 26.6591C156.961 26.2273 157.889 26.0114 158.983 26.0114V29.1206C158.84 29.1062 158.711 29.0991 158.595 29.0991C158.48 29.0847 158.357 29.0775 158.228 29.0775C157.307 29.0775 156.558 29.3437 155.983 29.8764C155.421 30.3945 155.141 31.2079 155.141 32.3163V37.8006H151.772Z" fill="#707070"/>
</g>
</g>
</g>
</g>
</g>
<defs>
<clipPath id="clip0_101_99">
<rect width="159.994" height="60" fill="white" transform="translate(0.000915527)"/>
</clipPath>
<clipPath id="clip1_101_99">
<rect width="159.98" height="59.98" fill="white" transform="translate(0.000915527)"/>
</clipPath>
<clipPath id="clip2_101_99">
<rect width="159.947" height="59.98" fill="white" transform="translate(0.0184937)"/>
</clipPath>
</defs>
</svg>
