<svg width="160" height="60" viewBox="0 0 160 60" fill="none" xmlns="http://www.w3.org/2000/svg">
<g clip-path="url(#clip0_101_62)">
<path fill-rule="evenodd" clip-rule="evenodd" d="M17.0542 46.351C26.0637 46.351 33.3675 39.0472 33.3675 30.0377C33.3675 21.0281 26.0637 13.7244 17.0542 13.7244C8.0446 13.7244 0.740891 21.0281 0.740891 30.0377C0.740891 39.0472 8.0446 46.351 17.0542 46.351ZM25.5368 24.5603C25.2422 24.0502 24.6937 23.7335 24.1047 23.7335H11.896L13.4815 26.4796H22.2122L17.8469 34.0406L19.4322 36.7867L25.5368 26.2136C25.8313 25.7037 25.8313 25.0702 25.5368 24.5603ZM11.8962 26.4796L17.0543 35.4136L17.056 35.4106L18.6412 38.157L18.4861 38.4256C18.1916 38.9356 17.6428 39.2524 17.054 39.2524C16.4652 39.2524 15.9166 38.9356 15.6222 38.4256L8.57168 26.2136C8.27737 25.7037 8.2772 25.0702 8.57168 24.5603C8.86617 24.0502 9.41489 23.7335 10.0037 23.7335H10.3158L11.9009 26.4796H11.8962Z" fill="#707070"/>
<path d="M49.773 24.7853H45.1138V21.8848H57.9036V24.7853H53.2443V37.8491H49.773V24.7853Z" fill="#707070"/>
<path d="M62.9429 38.1915C61.6183 38.1915 60.4535 37.9556 59.4485 37.4836C58.4588 36.9963 57.69 36.3189 57.1419 35.451C56.609 34.5678 56.3425 33.5401 56.3425 32.3677C56.3425 31.2259 56.609 30.2133 57.1419 29.3302C57.69 28.447 58.4588 27.762 59.4485 27.2747C60.4535 26.7874 61.6183 26.5438 62.9429 26.5438C64.2522 26.5438 65.4018 26.7874 66.3915 27.2747C67.3964 27.762 68.1654 28.447 68.6982 29.3302C69.2463 30.2133 69.5204 31.2259 69.5204 32.3677C69.5204 33.5401 69.2463 34.5678 68.6982 35.451C68.1654 36.3189 67.4041 36.9963 66.4144 37.4836C65.4247 37.9556 64.2675 38.1915 62.9429 38.1915ZM62.9429 35.4965C63.8716 35.4965 64.6101 35.2149 65.1582 34.6515C65.7063 34.073 65.9803 33.3117 65.9803 32.3677C65.9803 31.3932 65.7063 30.6321 65.1582 30.0837C64.6253 29.5205 63.8869 29.2387 62.9429 29.2387C61.9989 29.2387 61.2528 29.5205 60.7047 30.0837C60.1566 30.6321 59.8826 31.3932 59.8826 32.3677C59.8826 33.3117 60.1566 34.073 60.7047 34.6515C61.2681 35.2149 62.0142 35.4965 62.9429 35.4965Z" fill="#707070"/>
<path d="M71.4518 26.8864H74.7863V28.234C75.2887 27.6705 75.8825 27.2519 76.5677 26.9778C77.268 26.6885 77.9989 26.5438 78.7602 26.5438C80.2523 26.5438 81.3638 26.9473 82.0947 27.7542C82.8407 28.546 83.2137 29.6195 83.2137 30.9744V37.8491H79.7651V31.3628C79.7651 29.9468 79.1104 29.2387 77.801 29.2387C77.2225 29.2387 76.6819 29.3835 76.1794 29.6728C75.677 29.9468 75.2507 30.358 74.9005 30.9061V37.8491H71.4518V26.8864Z" fill="#707070"/>
<path d="M90.0016 38.1915C89.1793 38.1915 88.2963 38.1003 87.3522 37.9174C86.4235 37.7501 85.6927 37.5065 85.1598 37.1867V34.4918C85.7687 34.8572 86.4996 35.1541 87.3522 35.3825C88.2049 35.6108 88.9967 35.7251 89.7275 35.7251C90.3518 35.7251 90.8085 35.6716 91.0979 35.5651C91.3872 35.4586 91.5318 35.2606 91.5318 34.9713C91.5318 34.7429 91.4479 34.5603 91.2805 34.4232C91.1131 34.2709 90.8541 34.1416 90.5041 34.0349C90.169 33.9131 89.6058 33.738 88.814 33.5096C87.8851 33.2356 87.1543 32.9615 86.6215 32.6875C86.1037 32.3982 85.7079 32.0404 85.4339 31.6139C85.1749 31.1877 85.0456 30.6396 85.0456 29.9697C85.0456 28.8278 85.4947 27.975 86.3931 27.4116C87.3066 26.8331 88.5399 26.5438 90.0929 26.5438C90.8541 26.5438 91.6384 26.6276 92.4452 26.795C93.2675 26.9473 93.8993 27.1529 94.3409 27.4116V30.0383C93.8993 29.7489 93.3208 29.5128 92.6052 29.3302C91.9048 29.1476 91.2196 29.0561 90.5497 29.0561C89.9255 29.0561 89.4382 29.117 89.088 29.2387C88.753 29.3606 88.5855 29.5889 88.5855 29.924C88.5855 30.2133 88.7454 30.4341 89.0652 30.5863C89.4001 30.7385 90.0167 30.929 90.9151 31.1573L91.3719 31.2713C92.3311 31.5303 93.0771 31.8197 93.6101 32.1394C94.143 32.4439 94.5159 32.8168 94.7291 33.2584C94.9575 33.6847 95.0717 34.2253 95.0717 34.8798C95.0717 35.8848 94.6378 36.6918 93.7699 37.3008C92.9021 37.8946 91.6459 38.1915 90.0016 38.1915Z" fill="#707070"/>
<path d="M101.267 38.1915C99.9873 38.1915 99.013 37.8413 98.3431 37.1409C97.6884 36.4253 97.361 35.4356 97.361 34.1719V29.3758H95.7624V26.8864H97.361V23.5977H100.81V26.8864H103.39V29.3758H100.81V33.7151C100.81 34.3546 100.932 34.819 101.175 35.1083C101.419 35.3824 101.853 35.5194 102.476 35.5194C102.979 35.5194 103.459 35.3975 103.916 35.154V37.7347C103.215 38.0392 102.332 38.1915 101.267 38.1915Z" fill="#707070"/>
<path d="M109.262 38.1916C107.922 38.1916 106.826 37.8567 105.974 37.1867C105.136 36.5015 104.717 35.5726 104.717 34.4003C104.717 33.1823 105.121 32.2384 105.928 31.5685C106.735 30.8832 107.876 30.5406 109.354 30.5406C110.009 30.5406 110.632 30.6092 111.226 30.7462C111.82 30.8832 112.346 31.0734 112.803 31.3171V31.0431C112.803 30.358 112.559 29.8554 112.071 29.5357C111.584 29.216 110.838 29.0561 109.834 29.0561C108.493 29.0561 107.261 29.3073 106.133 29.8098V27.2976C106.621 27.0844 107.253 26.9093 108.029 26.7723C108.805 26.62 109.582 26.5439 110.359 26.5439C112.338 26.5439 113.814 26.955 114.789 27.7771C115.764 28.5842 116.251 29.7185 116.251 31.1801V37.8491H113.008V36.8441C112.079 37.7424 110.83 38.1916 109.262 38.1916ZM110.199 35.9077C110.762 35.9077 111.272 35.8012 111.729 35.5879C112.186 35.3747 112.544 35.0778 112.803 34.6972V33.6011C112.026 33.0834 111.173 32.8245 110.245 32.8245C109.605 32.8245 109.11 32.9615 108.76 33.2356C108.425 33.4943 108.257 33.8827 108.257 34.4003C108.257 34.8877 108.425 35.2606 108.76 35.5195C109.095 35.7784 109.575 35.9077 110.199 35.9077Z" fill="#707070"/>
<path d="M118.534 26.8867H121.869V28.4626C122.31 27.9296 122.926 27.5262 123.718 27.2521C124.51 26.9628 125.409 26.8182 126.413 26.8182V29.4447C125.363 29.4447 124.434 29.6045 123.627 29.9242C122.835 30.244 122.287 30.7313 121.983 31.3859V37.8493H118.534V26.8867Z" fill="#707070"/>
<path d="M132.47 38.1915C131.191 38.1915 130.216 37.8413 129.547 37.1409C128.892 36.4253 128.565 35.4356 128.565 34.1719V29.3758H126.965V26.8864H128.565V23.5977H132.013V26.8864H134.594V29.3758H132.013V33.7151C132.013 34.3546 132.135 34.819 132.379 35.1083C132.623 35.3824 133.056 35.5194 133.68 35.5194C134.183 35.5194 134.663 35.3975 135.12 35.154V37.7347C134.419 38.0392 133.536 38.1915 132.47 38.1915Z" fill="#707070"/>
<path d="M143.015 38.1915C140.914 38.1915 139.262 37.6891 138.059 36.6841C136.856 35.6641 136.255 34.2406 136.255 32.4135C136.255 30.6015 136.787 29.1703 137.854 28.1197C138.935 27.0691 140.472 26.5438 142.466 26.5438C143.776 26.5438 144.888 26.7874 145.801 27.2747C146.715 27.762 147.408 28.4395 147.88 29.3073C148.352 30.16 148.587 31.1269 148.587 32.2077V33.6011H139.543C139.787 35.0017 141.097 35.7022 143.472 35.7022C144.172 35.7022 144.896 35.6412 145.641 35.5194C146.387 35.3976 147.035 35.2302 147.582 35.017V37.4379C147.05 37.6662 146.364 37.8491 145.527 37.986C144.691 38.1231 143.852 38.1915 143.015 38.1915ZM145.322 31.3628C145.276 30.6321 145.002 30.0686 144.499 29.6728C143.998 29.2616 143.305 29.0561 142.421 29.0561C141.554 29.0561 140.868 29.2616 140.366 29.6728C139.863 30.0837 139.589 30.6472 139.543 31.3628H145.322Z" fill="#707070"/>
<path d="M150.495 26.8867H153.83V28.4626C154.271 27.9295 154.887 27.5262 155.679 27.2521C156.47 26.9628 157.369 26.8181 158.373 26.8181V29.4446C157.323 29.4446 156.394 29.6045 155.587 29.9242C154.796 30.244 154.248 30.7312 153.944 31.3859V37.8492H150.495V26.8867Z" fill="#707070"/>
</g>
<defs>
<clipPath id="clip0_101_62">
<rect width="159.947" height="59.98" fill="white" transform="translate(0.0123749)"/>
</clipPath>
</defs>
</svg>
