<svg width="101" height="60" viewBox="0 0 101 60" fill="none" xmlns="http://www.w3.org/2000/svg">
<mask id="mask0_101_55" style="mask-type:luminance" maskUnits="userSpaceOnUse" x="0" y="12" width="100" height="36">
<path d="M99.9745 12.9956H0.0078125V47.9433H99.9745V12.9956Z" fill="white"/>
</mask>
<g mask="url(#mask0_101_55)">
<path fill-rule="evenodd" clip-rule="evenodd" d="M8.72079 38.5324C16.6198 46.4851 26.4921 49.4402 30.7703 45.1318C34.0326 41.8484 33.1021 35.292 28.9758 28.8373C29.8739 27.35 30.7475 25.8456 31.5945 24.3234C31.7987 23.9607 31.907 23.5519 31.9091 23.1358C31.9111 22.7196 31.8069 22.3099 31.6063 21.9452C31.4056 21.5806 31.1152 21.2732 30.7625 21.0522C30.41 20.8311 30.0067 20.7039 29.591 20.6823C26.9253 20.5319 24.2392 20.4548 21.536 20.4548H21.5011C14.1784 14.4112 5.96561 12.5078 2.16607 16.3341C-2.113 20.6416 0.821821 30.5806 8.72079 38.5324ZM21.5011 20.4564C18.8093 20.4564 16.1354 20.5327 13.4802 20.6831C13.0646 20.7048 12.6615 20.8322 12.309 21.0533C11.9564 21.2744 11.6661 21.5817 11.4656 21.9464C11.265 22.311 11.161 22.7207 11.1631 23.1368C11.1652 23.5529 11.2734 23.9616 11.4776 24.3242C13.9354 28.7399 16.6198 33.0257 19.5196 37.1646C19.7459 37.4897 20.0475 37.7552 20.3986 37.9386C20.7497 38.122 21.1399 38.2177 21.536 38.2177C21.9321 38.2177 22.3224 38.122 22.6734 37.9386C23.0245 37.7552 23.3261 37.4897 23.5524 37.1646C25.4537 34.4511 27.2625 31.6732 28.9758 28.8373C27.6893 26.8249 26.0922 24.824 24.2156 22.9335C23.352 22.0637 22.4461 21.237 21.5011 20.4564Z" fill="#707070"/>
<path d="M47.1838 40.5728V24.3359H40.4844V20.703H57.9704V24.3359H51.2995V40.5728H47.1838ZM69.3642 40.8849C67.8874 40.8849 66.5156 40.6297 65.2477 40.1185C64.0048 39.6047 62.8689 38.8633 61.8984 37.9322C60.9559 36.9918 60.1954 35.8853 59.6553 34.6683C59.1262 33.4191 58.8612 32.0756 58.8612 30.6371C58.8612 29.1994 59.1262 27.8656 59.6561 26.6352C60.1865 25.4128 60.9479 24.3042 61.8984 23.3704C62.859 22.4273 63.9975 21.6844 65.2477 21.185C66.5156 20.655 67.8874 20.3901 69.3642 20.3901C70.8401 20.3901 72.2116 20.655 73.4802 21.185C74.7348 21.6754 75.8754 22.4197 76.8291 23.3712C77.7917 24.2946 78.5555 25.4055 79.0723 26.6352C79.6011 27.8656 79.867 29.1994 79.867 30.6379C79.867 32.0764 79.6011 33.4191 79.0713 34.6691C78.5455 35.8936 77.7837 37.0026 76.8291 37.933C75.8834 38.8596 74.7667 39.5885 73.4802 40.1193C72.2116 40.6297 70.8401 40.8849 69.3642 40.8849ZM69.3642 37.1098C70.2722 37.1098 71.105 36.9488 71.8617 36.6269C72.6015 36.2981 73.2752 35.8365 73.849 35.2648C74.4239 34.6671 74.8777 33.9632 75.1836 33.1924C75.5085 32.3801 75.6714 31.5126 75.6654 30.6379C75.6654 29.7105 75.5045 28.858 75.1836 28.0827C74.8817 27.3183 74.4279 26.6232 73.849 26.0395C73.2852 25.4555 72.6095 24.9918 71.8617 24.6765C71.105 24.3359 70.2722 24.1653 69.3642 24.1653C68.4742 24.1653 67.6509 24.3359 66.8943 24.6773C66.1467 24.9924 65.4707 25.4558 64.9071 26.0395C64.3289 26.6233 63.8753 27.3184 63.5735 28.0827C63.2516 28.8588 63.0907 29.7008 63.0907 30.6094C63.0907 31.536 63.2516 32.3975 63.5735 33.1924C63.8795 33.9631 64.3324 34.667 64.9071 35.2648C65.4807 35.8364 66.1543 36.2981 66.8943 36.6269C67.6509 36.9488 68.4742 37.1098 69.3642 37.1098ZM83.2859 40.5728V20.7022H93.2506C94.5561 20.7022 95.7008 20.9671 96.6854 21.4971C97.6611 22.0018 98.4768 22.7688 99.0417 23.7117C99.6085 24.6383 99.8924 25.7176 99.8924 26.9473C99.8924 28.1209 99.6085 29.1709 99.0417 30.0983C98.4728 31.0256 97.6881 31.7546 96.6854 32.2845C95.6818 32.8136 94.5372 33.0785 93.2506 33.0785H87.4025V40.5728H83.2859ZM87.4025 29.6723H92.7967C93.6854 29.6723 94.3952 29.4269 94.925 28.9344C95.4738 28.4428 95.7478 27.7893 95.7478 26.9757C95.7478 26.1435 95.4738 25.4802 94.925 24.9886C94.3952 24.4969 93.6854 24.2507 92.7967 24.2507H87.4025V29.6723Z" fill="#707070"/>
</g>
</svg>
